<svg width="214" height="171" viewBox="0 0 214 171" fill="none" xmlns="http://www.w3.org/2000/svg">
<path d="M44.7524 80.864C41.4404 80.864 38.4164 80.312 35.6804 79.208C32.9444 78.104 30.6164 76.472 28.6964 74.312C26.7764 72.104 25.2884 69.392 24.2324 66.176C23.1764 62.912 22.6484 59.144 22.6484 54.872C22.6484 50.6 23.1764 46.856 24.2324 43.64C25.2884 40.376 26.7764 37.664 28.6964 35.504C30.6164 33.296 32.9444 31.64 35.6804 30.536C38.4164 29.432 41.4404 28.88 44.7524 28.88C48.0644 28.88 51.0884 29.432 53.8244 30.536C56.5604 31.64 58.8884 33.296 60.8084 35.504C62.7284 37.664 64.2164 40.376 65.2724 43.64C66.3284 46.856 66.8564 50.6 66.8564 54.872C66.8564 59.144 66.3284 62.912 65.2724 66.176C64.2164 69.392 62.7284 72.104 60.8084 74.312C58.8884 76.472 56.5604 78.104 53.8244 79.208C51.0884 80.312 48.0644 80.864 44.7524 80.864ZM44.7524 71.144C48.0644 71.144 50.6324 70.064 52.4564 67.904C54.3284 65.744 55.2644 62.648 55.2644 58.616V51.128C55.2644 47.096 54.3284 44 52.4564 41.84C50.6324 39.68 48.0644 38.6 44.7524 38.6C41.4404 38.6 38.8484 39.68 36.9764 41.84C35.1524 44 34.2404 47.096 34.2404 51.128V58.616C34.2404 62.648 35.1524 65.744 36.9764 67.904C38.8484 70.064 41.4404 71.144 44.7524 71.144ZM72.3909 29.744H96.7989C100.975 29.744 104.215 30.92 106.519 33.272C108.871 35.624 110.047 38.744 110.047 42.632C110.047 44.552 109.783 46.184 109.255 47.528C108.775 48.872 108.103 49.976 107.239 50.84C106.423 51.704 105.439 52.352 104.287 52.784C103.183 53.168 101.983 53.384 100.687 53.432V53.864C101.887 53.864 103.135 54.08 104.431 54.512C105.775 54.944 106.999 55.64 108.103 56.6C109.207 57.512 110.119 58.712 110.839 60.2C111.607 61.688 111.991 63.512 111.991 65.672C111.991 67.64 111.655 69.512 110.983 71.288C110.359 73.016 109.471 74.528 108.319 75.824C107.167 77.12 105.799 78.152 104.215 78.92C102.631 79.64 100.903 80 99.0309 80H72.3909V29.744ZM83.3349 70.784H95.9349C97.3749 70.784 98.5029 70.4 99.3189 69.632C100.183 68.816 100.615 67.688 100.615 66.248V63.8C100.615 62.36 100.183 61.256 99.3189 60.488C98.5029 59.672 97.3749 59.264 95.9349 59.264H83.3349V70.784ZM83.3349 50.336H94.2069C95.6469 50.336 96.7749 49.928 97.5909 49.112C98.4069 48.296 98.8149 47.168 98.8149 45.728V43.568C98.8149 42.128 98.4069 41 97.5909 40.184C96.7749 39.368 95.6469 38.96 94.2069 38.96H83.3349V50.336ZM117.966 80V29.744H148.638V35.072H124.014V51.92H147.198V57.248H124.014V74.672H148.638V80H117.966ZM156.343 29.744H173.191C176.311 29.744 179.143 30.272 181.687 31.328C184.231 32.384 186.391 33.968 188.167 36.08C189.991 38.144 191.383 40.76 192.343 43.928C193.303 47.048 193.783 50.696 193.783 54.872C193.783 59.048 193.303 62.72 192.343 65.888C191.383 69.008 189.991 71.624 188.167 73.736C186.391 75.8 184.231 77.36 181.687 78.416C179.143 79.472 176.311 80 173.191 80H156.343V29.744ZM173.191 74.672C175.255 74.672 177.151 74.336 178.879 73.664C180.607 72.944 182.095 71.912 183.343 70.568C184.591 69.224 185.551 67.592 186.223 65.672C186.943 63.704 187.303 61.472 187.303 58.976V50.768C187.303 48.272 186.943 46.064 186.223 44.144C185.551 42.176 184.591 40.52 183.343 39.176C182.095 37.832 180.607 36.824 178.879 36.152C177.151 35.432 175.255 35.072 173.191 35.072H162.391V74.672H173.191Z" fill="#009FC7"/>
<path d="M18.252 152L16.452 146.024H8.064L6.264 152H0.72L9 126.872H15.768L23.94 152H18.252ZM12.312 131.84H12.132L9.36 141.38H15.12L12.312 131.84ZM36.9205 148.832H36.7405C36.5965 149.336 36.3685 149.816 36.0565 150.272C35.7445 150.704 35.3605 151.088 34.9045 151.424C34.4725 151.736 33.9685 151.976 33.3925 152.144C32.8405 152.336 32.2645 152.432 31.6645 152.432C29.2645 152.432 27.4525 151.592 26.2285 149.912C25.0045 148.208 24.3925 145.748 24.3925 142.532C24.3925 139.316 25.0045 136.868 26.2285 135.188C27.4525 133.508 29.2645 132.668 31.6645 132.668C32.8885 132.668 33.9685 133.004 34.9045 133.676C35.8645 134.348 36.4765 135.212 36.7405 136.268H36.9205V125.36H42.2485V152H36.9205V148.832ZM33.4285 148.112C34.4365 148.112 35.2645 147.872 35.9125 147.392C36.5845 146.888 36.9205 146.204 36.9205 145.34V139.76C36.9205 138.896 36.5845 138.224 35.9125 137.744C35.2645 137.24 34.4365 136.988 33.4285 136.988C32.4205 136.988 31.5805 137.348 30.9085 138.068C30.2605 138.764 29.9365 139.712 29.9365 140.912V144.188C29.9365 145.388 30.2605 146.348 30.9085 147.068C31.5805 147.764 32.4205 148.112 33.4285 148.112ZM45.4309 152V133.1H50.7589V136.304H50.9749C51.3109 135.296 51.8869 134.444 52.7029 133.748C53.5189 133.028 54.6349 132.668 56.0509 132.668C57.3469 132.668 58.4509 132.992 59.3629 133.64C60.2749 134.288 60.9349 135.236 61.3429 136.484H61.4509C61.6189 135.956 61.8709 135.464 62.2069 135.008C62.5669 134.528 62.9989 134.12 63.5029 133.784C64.0069 133.448 64.5709 133.184 65.1949 132.992C65.8189 132.776 66.4909 132.668 67.2109 132.668C69.0349 132.668 70.4269 133.316 71.3869 134.612C72.3709 135.908 72.8629 137.756 72.8629 140.156V152H67.5349V140.588C67.5349 138.188 66.6709 136.988 64.9429 136.988C64.1509 136.988 63.4309 137.216 62.7829 137.672C62.1349 138.128 61.8109 138.824 61.8109 139.76V152H56.4829V140.588C56.4829 138.188 55.6189 136.988 53.8909 136.988C53.5069 136.988 53.1229 137.048 52.7389 137.168C52.3789 137.264 52.0429 137.432 51.7309 137.672C51.4429 137.912 51.2029 138.212 51.0109 138.572C50.8429 138.908 50.7589 139.304 50.7589 139.76V152H45.4309ZM78.4628 131.084C77.3828 131.084 76.5908 130.844 76.0868 130.364C75.6068 129.86 75.3668 129.224 75.3668 128.456V127.664C75.3668 126.896 75.6068 126.272 76.0868 125.792C76.5908 125.288 77.3828 125.036 78.4628 125.036C79.5428 125.036 80.3228 125.288 80.8028 125.792C81.3068 126.272 81.5588 126.896 81.5588 127.664V128.456C81.5588 129.224 81.3068 129.86 80.8028 130.364C80.3228 130.844 79.5428 131.084 78.4628 131.084ZM75.7988 133.1H81.1268V152H75.7988V133.1ZM84.2996 152V133.1H89.6276V136.304H89.8436C90.1796 135.32 90.7676 134.468 91.6076 133.748C92.4476 133.028 93.6116 132.668 95.0996 132.668C97.0436 132.668 98.5076 133.316 99.4916 134.612C100.5 135.908 101.004 137.756 101.004 140.156V152H95.6756V140.588C95.6756 139.364 95.4836 138.464 95.0996 137.888C94.7156 137.288 94.0316 136.988 93.0476 136.988C92.6156 136.988 92.1956 137.048 91.7876 137.168C91.3796 137.264 91.0076 137.432 90.6716 137.672C90.3596 137.912 90.1076 138.212 89.9156 138.572C89.7236 138.908 89.6276 139.304 89.6276 139.76V152H84.2996ZM106.609 131.084C105.529 131.084 104.737 130.844 104.233 130.364C103.753 129.86 103.513 129.224 103.513 128.456V127.664C103.513 126.896 103.753 126.272 104.233 125.792C104.737 125.288 105.529 125.036 106.609 125.036C107.689 125.036 108.469 125.288 108.949 125.792C109.453 126.272 109.705 126.896 109.705 127.664V128.456C109.705 129.224 109.453 129.86 108.949 130.364C108.469 130.844 107.689 131.084 106.609 131.084ZM103.945 133.1H109.273V152H103.945V133.1ZM118.854 152.432C117.03 152.432 115.494 152.144 114.246 151.568C112.998 150.968 111.882 150.128 110.898 149.048L114.03 145.88C114.702 146.624 115.446 147.212 116.262 147.644C117.078 148.076 118.002 148.292 119.034 148.292C120.09 148.292 120.822 148.136 121.23 147.824C121.638 147.488 121.842 147.044 121.842 146.492C121.842 145.604 121.206 145.076 119.934 144.908L117.882 144.656C113.634 144.128 111.51 142.184 111.51 138.824C111.51 137.912 111.678 137.084 112.014 136.34C112.374 135.572 112.866 134.924 113.49 134.396C114.138 133.844 114.906 133.424 115.794 133.136C116.706 132.824 117.726 132.668 118.854 132.668C119.838 132.668 120.702 132.74 121.446 132.884C122.214 133.004 122.886 133.196 123.462 133.46C124.062 133.7 124.602 134.012 125.082 134.396C125.586 134.756 126.078 135.164 126.558 135.62L123.498 138.752C122.898 138.152 122.214 137.684 121.446 137.348C120.702 136.988 119.934 136.808 119.142 136.808C118.23 136.808 117.582 136.952 117.198 137.24C116.814 137.528 116.622 137.912 116.622 138.392C116.622 138.896 116.754 139.292 117.018 139.58C117.306 139.844 117.834 140.036 118.602 140.156L120.726 140.444C124.878 140.996 126.954 142.892 126.954 146.132C126.954 147.044 126.762 147.884 126.378 148.652C125.994 149.42 125.442 150.092 124.722 150.668C124.026 151.22 123.174 151.652 122.166 151.964C121.182 152.276 120.078 152.432 118.854 152.432ZM135.129 152C133.281 152 131.877 151.532 130.917 150.596C129.981 149.66 129.513 148.292 129.513 146.492V137.24H126.849V133.1H128.181C128.901 133.1 129.393 132.932 129.657 132.596C129.921 132.236 130.053 131.732 130.053 131.084V127.988H134.841V133.1H138.585V137.24H134.841V147.86H138.297V152H135.129ZM140.486 152V133.1H145.814V137.204H145.994C146.09 136.676 146.258 136.172 146.498 135.692C146.738 135.188 147.05 134.744 147.434 134.36C147.842 133.976 148.322 133.676 148.874 133.46C149.426 133.22 150.074 133.1 150.818 133.1H151.754V138.068H150.422C148.862 138.068 147.698 138.272 146.93 138.68C146.186 139.088 145.814 139.844 145.814 140.948V152H140.486ZM166.717 152C165.757 152 164.953 151.7 164.305 151.1C163.681 150.5 163.285 149.696 163.117 148.688H162.901C162.613 149.912 161.977 150.848 160.993 151.496C160.009 152.12 158.797 152.432 157.357 152.432C155.461 152.432 154.009 151.928 153.001 150.92C151.993 149.912 151.489 148.58 151.489 146.924C151.489 144.932 152.209 143.456 153.649 142.496C155.113 141.512 157.093 141.02 159.589 141.02H162.577V139.832C162.577 138.92 162.337 138.2 161.857 137.672C161.377 137.12 160.573 136.844 159.445 136.844C158.389 136.844 157.549 137.072 156.925 137.528C156.301 137.984 155.785 138.5 155.377 139.076L152.209 136.268C152.977 135.14 153.937 134.264 155.089 133.64C156.265 132.992 157.849 132.668 159.841 132.668C162.529 132.668 164.545 133.256 165.889 134.432C167.233 135.608 167.905 137.324 167.905 139.58V147.86H169.669V152H166.717ZM159.337 148.724C160.225 148.724 160.981 148.532 161.605 148.148C162.253 147.764 162.577 147.14 162.577 146.276V144.044H159.985C157.897 144.044 156.853 144.752 156.853 146.168V146.708C156.853 147.404 157.069 147.92 157.501 148.256C157.933 148.568 158.545 148.724 159.337 148.724ZM177.858 152C176.01 152 174.606 151.532 173.646 150.596C172.71 149.66 172.242 148.292 172.242 146.492V137.24H169.578V133.1H170.91C171.63 133.1 172.122 132.932 172.386 132.596C172.65 132.236 172.782 131.732 172.782 131.084V127.988H177.57V133.1H181.314V137.24H177.57V147.86H181.026V152H177.858ZM190.743 152.432C189.351 152.432 188.103 152.204 186.999 151.748C185.919 151.292 184.995 150.632 184.227 149.768C183.483 148.904 182.907 147.86 182.499 146.636C182.091 145.412 181.887 144.044 181.887 142.532C181.887 141.02 182.091 139.652 182.499 138.428C182.907 137.204 183.483 136.172 184.227 135.332C184.995 134.468 185.919 133.808 186.999 133.352C188.103 132.896 189.351 132.668 190.743 132.668C192.135 132.668 193.371 132.896 194.451 133.352C195.555 133.808 196.479 134.468 197.223 135.332C197.991 136.172 198.579 137.204 198.987 138.428C199.395 139.652 199.599 141.02 199.599 142.532C199.599 144.044 199.395 145.412 198.987 146.636C198.579 147.86 197.991 148.904 197.223 149.768C196.479 150.632 195.555 151.292 194.451 151.748C193.371 152.204 192.135 152.432 190.743 152.432ZM190.743 148.22C191.799 148.22 192.615 147.896 193.191 147.248C193.767 146.6 194.055 145.676 194.055 144.476V140.624C194.055 139.424 193.767 138.5 193.191 137.852C192.615 137.204 191.799 136.88 190.743 136.88C189.687 136.88 188.871 137.204 188.295 137.852C187.719 138.5 187.431 139.424 187.431 140.624V144.476C187.431 145.676 187.719 146.6 188.295 147.248C188.871 147.896 189.687 148.22 190.743 148.22ZM201.595 152V133.1H206.923V137.204H207.103C207.199 136.676 207.367 136.172 207.607 135.692C207.847 135.188 208.159 134.744 208.543 134.36C208.951 133.976 209.431 133.676 209.983 133.46C210.535 133.22 211.183 133.1 211.927 133.1H212.863V138.068H211.531C209.971 138.068 208.807 138.272 208.039 138.68C207.295 139.088 206.923 139.844 206.923 140.948V152H201.595Z" fill="#009FC7"/>
<path d="M26.3454 99.108C25.9374 99.108 25.5684 99.039 25.2384 98.901C24.9144 98.757 24.6354 98.55 24.4014 98.28C24.1734 98.004 23.9964 97.665 23.8704 97.263C23.7444 96.855 23.6814 96.387 23.6814 95.859C23.6814 95.331 23.7444 94.866 23.8704 94.464C23.9964 94.062 24.1734 93.723 24.4014 93.447C24.6354 93.171 24.9144 92.964 25.2384 92.826C25.5684 92.682 25.9374 92.61 26.3454 92.61C26.7474 92.61 27.1134 92.682 27.4434 92.826C27.7734 92.964 28.0524 93.171 28.2804 93.447C28.5144 93.723 28.6944 94.062 28.8204 94.464C28.9464 94.866 29.0094 95.331 29.0094 95.859C29.0094 96.387 28.9464 96.855 28.8204 97.263C28.6944 97.665 28.5144 98.004 28.2804 98.28C28.0524 98.55 27.7734 98.757 27.4434 98.901C27.1134 99.039 26.7474 99.108 26.3454 99.108ZM26.3454 98.433C26.6154 98.433 26.8644 98.385 27.0924 98.289C27.3204 98.193 27.5154 98.055 27.6774 97.875C27.8454 97.695 27.9744 97.479 28.0644 97.227C28.1544 96.975 28.1994 96.693 28.1994 96.381V95.337C28.1994 95.025 28.1544 94.743 28.0644 94.491C27.9744 94.239 27.8454 94.023 27.6774 93.843C27.5154 93.663 27.3204 93.525 27.0924 93.429C26.8644 93.333 26.6154 93.285 26.3454 93.285C26.0754 93.285 25.8264 93.333 25.5984 93.429C25.3704 93.525 25.1724 93.663 25.0044 93.843C24.8424 94.023 24.7164 94.239 24.6264 94.491C24.5364 94.743 24.4914 95.025 24.4914 95.337V96.381C24.4914 96.693 24.5364 96.975 24.6264 97.227C24.7164 97.479 24.8424 97.695 25.0044 97.875C25.1724 98.055 25.3704 98.193 25.5984 98.289C25.8264 98.385 26.0754 98.433 26.3454 98.433ZM32.7084 98.244H32.6724C32.6244 98.352 32.5644 98.46 32.4924 98.568C32.4264 98.67 32.3424 98.763 32.2404 98.847C32.1384 98.925 32.0154 98.988 31.8714 99.036C31.7274 99.084 31.5594 99.108 31.3674 99.108C30.8874 99.108 30.5064 98.955 30.2244 98.649C29.9424 98.337 29.8014 97.899 29.8014 97.335V94.356H30.5214V97.209C30.5214 98.043 30.8754 98.46 31.5834 98.46C31.7274 98.46 31.8654 98.442 31.9974 98.406C32.1354 98.37 32.2554 98.316 32.3574 98.244C32.4654 98.172 32.5494 98.082 32.6094 97.974C32.6754 97.86 32.7084 97.725 32.7084 97.569V94.356H33.4284V99H32.7084V98.244ZM35.5377 99C35.2857 99 35.0937 98.931 34.9617 98.793C34.8357 98.649 34.7727 98.463 34.7727 98.235V94.986H34.0077V94.356H34.4397C34.5957 94.356 34.7007 94.326 34.7547 94.266C34.8147 94.2 34.8447 94.089 34.8447 93.933V93.069H35.4927V94.356H36.5097V94.986H35.4927V98.37H36.4377V99H35.5377ZM38.9098 99.108C38.5858 99.108 38.2948 99.051 38.0368 98.937C37.7788 98.823 37.5598 98.661 37.3798 98.451C37.2058 98.241 37.0708 97.986 36.9748 97.686C36.8848 97.386 36.8398 97.05 36.8398 96.678C36.8398 96.306 36.8848 95.97 36.9748 95.67C37.0708 95.37 37.2058 95.115 37.3798 94.905C37.5598 94.695 37.7788 94.533 38.0368 94.419C38.2948 94.305 38.5858 94.248 38.9098 94.248C39.3718 94.248 39.7408 94.35 40.0168 94.554C40.2988 94.752 40.5088 95.013 40.6468 95.337L40.0438 95.643C39.9598 95.403 39.8218 95.217 39.6298 95.085C39.4378 94.953 39.1978 94.887 38.9098 94.887C38.6938 94.887 38.5048 94.923 38.3428 94.995C38.1808 95.061 38.0458 95.157 37.9378 95.283C37.8298 95.403 37.7488 95.55 37.6948 95.724C37.6408 95.892 37.6138 96.078 37.6138 96.282V97.074C37.6138 97.482 37.7218 97.818 37.9378 98.082C38.1598 98.34 38.4838 98.469 38.9098 98.469C39.4918 98.469 39.9118 98.199 40.1698 97.659L40.6918 98.01C40.5418 98.346 40.3168 98.613 40.0168 98.811C39.7228 99.009 39.3538 99.108 38.9098 99.108ZM42.9604 99.108C42.6484 99.108 42.3634 99.051 42.1054 98.937C41.8474 98.823 41.6254 98.661 41.4394 98.451C41.2594 98.235 41.1184 97.98 41.0164 97.686C40.9144 97.386 40.8634 97.05 40.8634 96.678C40.8634 96.312 40.9144 95.979 41.0164 95.679C41.1184 95.379 41.2594 95.124 41.4394 94.914C41.6254 94.698 41.8474 94.533 42.1054 94.419C42.3634 94.305 42.6484 94.248 42.9604 94.248C43.2724 94.248 43.5544 94.305 43.8064 94.419C44.0644 94.533 44.2864 94.698 44.4724 94.914C44.6584 95.124 44.8024 95.379 44.9044 95.679C45.0064 95.979 45.0574 96.312 45.0574 96.678C45.0574 97.05 45.0064 97.386 44.9044 97.686C44.8024 97.98 44.6584 98.235 44.4724 98.451C44.2864 98.661 44.0644 98.823 43.8064 98.937C43.5544 99.051 43.2724 99.108 42.9604 99.108ZM42.9604 98.469C43.3504 98.469 43.6684 98.349 43.9144 98.109C44.1604 97.869 44.2834 97.503 44.2834 97.011V96.345C44.2834 95.853 44.1604 95.487 43.9144 95.247C43.6684 95.007 43.3504 94.887 42.9604 94.887C42.5704 94.887 42.2524 95.007 42.0064 95.247C41.7604 95.487 41.6374 95.853 41.6374 96.345V97.011C41.6374 97.503 41.7604 97.869 42.0064 98.109C42.2524 98.349 42.5704 98.469 42.9604 98.469ZM45.7916 99V94.356H46.5116V95.112H46.5476C46.6016 94.992 46.6616 94.881 46.7276 94.779C46.7996 94.671 46.8836 94.578 46.9796 94.5C47.0816 94.422 47.1986 94.362 47.3306 94.32C47.4626 94.272 47.6186 94.248 47.7986 94.248C48.1046 94.248 48.3866 94.323 48.6446 94.473C48.9026 94.617 49.0946 94.857 49.2206 95.193H49.2386C49.3226 94.941 49.4786 94.722 49.7066 94.536C49.9406 94.344 50.2556 94.248 50.6516 94.248C51.1256 94.248 51.4946 94.404 51.7586 94.716C52.0286 95.022 52.1636 95.457 52.1636 96.021V99H51.4436V96.147C51.4436 95.733 51.3626 95.421 51.2006 95.211C51.0386 95.001 50.7806 94.896 50.4266 94.896C50.2826 94.896 50.1446 94.914 50.0126 94.95C49.8866 94.986 49.7726 95.04 49.6706 95.112C49.5686 95.184 49.4876 95.277 49.4276 95.391C49.3676 95.499 49.3376 95.628 49.3376 95.778V99H48.6176V96.147C48.6176 95.733 48.5366 95.421 48.3746 95.211C48.2126 95.001 47.9606 94.896 47.6186 94.896C47.4746 94.896 47.3366 94.914 47.2046 94.95C47.0726 94.986 46.9556 95.04 46.8536 95.112C46.7516 95.184 46.6676 95.277 46.6016 95.391C46.5416 95.499 46.5116 95.628 46.5116 95.778V99H45.7916ZM54.945 99.108C54.627 99.108 54.339 99.051 54.081 98.937C53.829 98.823 53.61 98.661 53.424 98.451C53.244 98.235 53.103 97.98 53.001 97.686C52.905 97.386 52.857 97.05 52.857 96.678C52.857 96.312 52.905 95.979 53.001 95.679C53.103 95.379 53.244 95.124 53.424 94.914C53.61 94.698 53.829 94.533 54.081 94.419C54.339 94.305 54.627 94.248 54.945 94.248C55.257 94.248 55.536 94.305 55.782 94.419C56.028 94.533 56.238 94.692 56.412 94.896C56.586 95.094 56.718 95.331 56.808 95.607C56.904 95.883 56.952 96.186 56.952 96.516V96.858H53.613V97.074C53.613 97.272 53.643 97.458 53.703 97.632C53.769 97.8 53.859 97.947 53.973 98.073C54.093 98.199 54.237 98.298 54.405 98.37C54.579 98.442 54.774 98.478 54.99 98.478C55.284 98.478 55.539 98.409 55.755 98.271C55.977 98.133 56.148 97.935 56.268 97.677L56.781 98.046C56.631 98.364 56.397 98.622 56.079 98.82C55.761 99.012 55.383 99.108 54.945 99.108ZM54.945 94.851C54.747 94.851 54.567 94.887 54.405 94.959C54.243 95.025 54.102 95.121 53.982 95.247C53.868 95.373 53.778 95.523 53.712 95.697C53.646 95.865 53.613 96.051 53.613 96.255V96.318H56.178V96.219C56.178 95.805 56.064 95.475 55.836 95.229C55.614 94.977 55.317 94.851 54.945 94.851ZM57.6323 96.651V95.877H59.9813V96.651H57.6323ZM60.9931 92.718H63.5761C64.0981 92.718 64.5061 92.865 64.8001 93.159C65.1001 93.453 65.2501 93.846 65.2501 94.338C65.2501 94.572 65.2171 94.77 65.1511 94.932C65.0851 95.094 65.0011 95.229 64.8991 95.337C64.7971 95.439 64.6861 95.517 64.5661 95.571C64.4461 95.619 64.3351 95.652 64.2331 95.67V95.724C64.3471 95.73 64.4731 95.76 64.6111 95.814C64.7551 95.868 64.8901 95.955 65.0161 96.075C65.1421 96.189 65.2471 96.339 65.3311 96.525C65.4211 96.705 65.4661 96.924 65.4661 97.182C65.4661 97.44 65.4241 97.68 65.3401 97.902C65.2621 98.124 65.1511 98.316 65.0071 98.478C64.8631 98.64 64.6921 98.769 64.4941 98.865C64.2961 98.955 64.0801 99 63.8461 99H60.9931V92.718ZM61.7491 98.334H63.6121C63.9361 98.334 64.1911 98.253 64.3771 98.091C64.5631 97.923 64.6561 97.68 64.6561 97.362V97.056C64.6561 96.738 64.5631 96.498 64.3771 96.336C64.1911 96.168 63.9361 96.084 63.6121 96.084H61.7491V98.334ZM61.7491 95.436H63.4861C63.7861 95.436 64.0201 95.361 64.1881 95.211C64.3561 95.061 64.4401 94.845 64.4401 94.563V94.257C64.4401 93.975 64.3561 93.759 64.1881 93.609C64.0201 93.459 63.7861 93.384 63.4861 93.384H61.7491V95.436ZM69.7259 99C69.4559 99 69.2609 98.928 69.1409 98.784C69.0269 98.64 68.9549 98.46 68.9249 98.244H68.8799C68.7779 98.532 68.6099 98.748 68.3759 98.892C68.1419 99.036 67.8629 99.108 67.5389 99.108C67.0469 99.108 66.6629 98.982 66.3869 98.73C66.1169 98.478 65.9819 98.136 65.9819 97.704C65.9819 97.266 66.1409 96.93 66.4589 96.696C66.7829 96.462 67.2839 96.345 67.9619 96.345H68.8799V95.886C68.8799 95.556 68.7899 95.304 68.6099 95.13C68.4299 94.956 68.1539 94.869 67.7819 94.869C67.4999 94.869 67.2629 94.932 67.0709 95.058C66.8849 95.184 66.7289 95.352 66.6029 95.562L66.1709 95.157C66.2969 94.905 66.4979 94.692 66.7739 94.518C67.0499 94.338 67.3979 94.248 67.8179 94.248C68.3819 94.248 68.8199 94.386 69.1319 94.662C69.4439 94.938 69.5999 95.322 69.5999 95.814V98.37H70.1309V99H69.7259ZM67.6559 98.496C67.8359 98.496 68.0009 98.475 68.1509 98.433C68.3009 98.391 68.4299 98.331 68.5379 98.253C68.6459 98.175 68.7299 98.085 68.7899 97.983C68.8499 97.881 68.8799 97.77 68.8799 97.65V96.885H67.9259C67.5119 96.885 67.2089 96.945 67.0169 97.065C66.8309 97.185 66.7379 97.359 66.7379 97.587V97.776C66.7379 98.004 66.8189 98.181 66.9809 98.307C67.1489 98.433 67.3739 98.496 67.6559 98.496ZM72.1036 99.108C71.6716 99.108 71.3086 99.027 71.0146 98.865C70.7266 98.697 70.4776 98.475 70.2676 98.199L70.7806 97.785C70.9606 98.013 71.1616 98.19 71.3836 98.316C71.6056 98.436 71.8636 98.496 72.1576 98.496C72.4636 98.496 72.7006 98.43 72.8686 98.298C73.0426 98.166 73.1296 97.98 73.1296 97.74C73.1296 97.56 73.0696 97.407 72.9496 97.281C72.8356 97.149 72.6256 97.059 72.3196 97.011L71.9506 96.957C71.7346 96.927 71.5366 96.882 71.3566 96.822C71.1766 96.756 71.0176 96.672 70.8796 96.57C70.7476 96.462 70.6426 96.33 70.5646 96.174C70.4926 96.018 70.4566 95.832 70.4566 95.616C70.4566 95.388 70.4986 95.19 70.5826 95.022C70.6666 94.848 70.7806 94.704 70.9246 94.59C71.0746 94.476 71.2516 94.392 71.4556 94.338C71.6596 94.278 71.8786 94.248 72.1126 94.248C72.4906 94.248 72.8056 94.314 73.0576 94.446C73.3156 94.578 73.5406 94.761 73.7326 94.995L73.2556 95.427C73.1536 95.283 73.0036 95.154 72.8056 95.04C72.6076 94.92 72.3586 94.86 72.0586 94.86C71.7586 94.86 71.5306 94.926 71.3746 95.058C71.2246 95.184 71.1496 95.358 71.1496 95.58C71.1496 95.808 71.2246 95.973 71.3746 96.075C71.5306 96.177 71.7526 96.252 72.0406 96.3L72.4006 96.354C72.9166 96.432 73.2826 96.582 73.4986 96.804C73.7146 97.02 73.8226 97.305 73.8226 97.659C73.8226 98.109 73.6696 98.463 73.3636 98.721C73.0576 98.979 72.6376 99.108 72.1036 99.108ZM76.3903 99.108C76.0723 99.108 75.7843 99.051 75.5263 98.937C75.2743 98.823 75.0553 98.661 74.8693 98.451C74.6893 98.235 74.5483 97.98 74.4463 97.686C74.3503 97.386 74.3023 97.05 74.3023 96.678C74.3023 96.312 74.3503 95.979 74.4463 95.679C74.5483 95.379 74.6893 95.124 74.8693 94.914C75.0553 94.698 75.2743 94.533 75.5263 94.419C75.7843 94.305 76.0723 94.248 76.3903 94.248C76.7023 94.248 76.9813 94.305 77.2273 94.419C77.4733 94.533 77.6833 94.692 77.8573 94.896C78.0313 95.094 78.1633 95.331 78.2533 95.607C78.3493 95.883 78.3973 96.186 78.3973 96.516V96.858H75.0583V97.074C75.0583 97.272 75.0883 97.458 75.1483 97.632C75.2143 97.8 75.3043 97.947 75.4183 98.073C75.5383 98.199 75.6823 98.298 75.8503 98.37C76.0243 98.442 76.2193 98.478 76.4353 98.478C76.7293 98.478 76.9843 98.409 77.2003 98.271C77.4223 98.133 77.5933 97.935 77.7133 97.677L78.2263 98.046C78.0763 98.364 77.8423 98.622 77.5243 98.82C77.2063 99.012 76.8283 99.108 76.3903 99.108ZM76.3903 94.851C76.1923 94.851 76.0123 94.887 75.8503 94.959C75.6883 95.025 75.5473 95.121 75.4273 95.247C75.3133 95.373 75.2233 95.523 75.1573 95.697C75.0913 95.865 75.0583 96.051 75.0583 96.255V96.318H77.6233V96.219C77.6233 95.805 77.5093 95.475 77.2813 95.229C77.0593 94.977 76.7623 94.851 76.3903 94.851ZM82.1038 98.244H82.0678C81.7858 98.82 81.3328 99.108 80.7088 99.108C80.4208 99.108 80.1598 99.051 79.9258 98.937C79.6918 98.823 79.4908 98.661 79.3228 98.451C79.1608 98.241 79.0348 97.986 78.9448 97.686C78.8608 97.386 78.8188 97.05 78.8188 96.678C78.8188 96.306 78.8608 95.97 78.9448 95.67C79.0348 95.37 79.1608 95.115 79.3228 94.905C79.4908 94.695 79.6918 94.533 79.9258 94.419C80.1598 94.305 80.4208 94.248 80.7088 94.248C81.0328 94.248 81.3088 94.32 81.5368 94.464C81.7708 94.602 81.9478 94.818 82.0678 95.112H82.1038V92.34H82.8238V99H82.1038V98.244ZM80.9068 98.46C81.0688 98.46 81.2218 98.439 81.3658 98.397C81.5158 98.355 81.6448 98.295 81.7528 98.217C81.8608 98.133 81.9448 98.034 82.0048 97.92C82.0708 97.8 82.1038 97.665 82.1038 97.515V95.787C82.1038 95.661 82.0708 95.544 82.0048 95.436C81.9448 95.322 81.8608 95.226 81.7528 95.148C81.6448 95.07 81.5158 95.01 81.3658 94.968C81.2218 94.92 81.0688 94.896 80.9068 94.896C80.4988 94.896 80.1778 95.025 79.9438 95.283C79.7098 95.535 79.5928 95.868 79.5928 96.282V97.074C79.5928 97.488 79.7098 97.824 79.9438 98.082C80.1778 98.334 80.4988 98.46 80.9068 98.46ZM85.6534 99V92.718H86.4094V98.334H89.0824V99H85.6534ZM91.2983 99.108C90.9803 99.108 90.6923 99.051 90.4343 98.937C90.1823 98.823 89.9633 98.661 89.7773 98.451C89.5973 98.235 89.4563 97.98 89.3543 97.686C89.2583 97.386 89.2103 97.05 89.2103 96.678C89.2103 96.312 89.2583 95.979 89.3543 95.679C89.4563 95.379 89.5973 95.124 89.7773 94.914C89.9633 94.698 90.1823 94.533 90.4343 94.419C90.6923 94.305 90.9803 94.248 91.2983 94.248C91.6103 94.248 91.8893 94.305 92.1353 94.419C92.3813 94.533 92.5913 94.692 92.7653 94.896C92.9393 95.094 93.0713 95.331 93.1613 95.607C93.2573 95.883 93.3053 96.186 93.3053 96.516V96.858H89.9663V97.074C89.9663 97.272 89.9963 97.458 90.0563 97.632C90.1223 97.8 90.2123 97.947 90.3263 98.073C90.4463 98.199 90.5903 98.298 90.7583 98.37C90.9323 98.442 91.1273 98.478 91.3433 98.478C91.6373 98.478 91.8923 98.409 92.1083 98.271C92.3303 98.133 92.5013 97.935 92.6213 97.677L93.1343 98.046C92.9843 98.364 92.7503 98.622 92.4323 98.82C92.1143 99.012 91.7363 99.108 91.2983 99.108ZM91.2983 94.851C91.1003 94.851 90.9203 94.887 90.7583 94.959C90.5963 95.025 90.4553 95.121 90.3353 95.247C90.2213 95.373 90.1313 95.523 90.0653 95.697C89.9993 95.865 89.9663 96.051 89.9663 96.255V96.318H92.5313V96.219C92.5313 95.805 92.4173 95.475 92.1893 95.229C91.9673 94.977 91.6703 94.851 91.2983 94.851ZM97.4168 99C97.1468 99 96.9518 98.928 96.8318 98.784C96.7178 98.64 96.6458 98.46 96.6158 98.244H96.5708C96.4688 98.532 96.3008 98.748 96.0668 98.892C95.8328 99.036 95.5538 99.108 95.2298 99.108C94.7378 99.108 94.3538 98.982 94.0778 98.73C93.8078 98.478 93.6728 98.136 93.6728 97.704C93.6728 97.266 93.8318 96.93 94.1498 96.696C94.4738 96.462 94.9748 96.345 95.6528 96.345H96.5708V95.886C96.5708 95.556 96.4808 95.304 96.3008 95.13C96.1208 94.956 95.8448 94.869 95.4728 94.869C95.1908 94.869 94.9538 94.932 94.7618 95.058C94.5758 95.184 94.4198 95.352 94.2938 95.562L93.8618 95.157C93.9878 94.905 94.1888 94.692 94.4648 94.518C94.7408 94.338 95.0888 94.248 95.5088 94.248C96.0728 94.248 96.5108 94.386 96.8228 94.662C97.1348 94.938 97.2908 95.322 97.2908 95.814V98.37H97.8218V99H97.4168ZM95.3468 98.496C95.5268 98.496 95.6918 98.475 95.8418 98.433C95.9918 98.391 96.1208 98.331 96.2288 98.253C96.3368 98.175 96.4208 98.085 96.4808 97.983C96.5408 97.881 96.5708 97.77 96.5708 97.65V96.885H95.6168C95.2028 96.885 94.8998 96.945 94.7078 97.065C94.5218 97.185 94.4288 97.359 94.4288 97.587V97.776C94.4288 98.004 94.5098 98.181 94.6718 98.307C94.8398 98.433 95.0648 98.496 95.3468 98.496ZM98.3994 99V94.356H99.1194V95.211H99.1644C99.2484 94.989 99.3984 94.791 99.6144 94.617C99.8304 94.443 100.127 94.356 100.505 94.356H100.784V95.076H100.361C99.9714 95.076 99.6654 95.151 99.4434 95.301C99.2274 95.445 99.1194 95.628 99.1194 95.85V99H98.3994ZM101.254 99V94.356H101.974V95.112H102.01C102.124 94.848 102.283 94.638 102.487 94.482C102.697 94.326 102.976 94.248 103.324 94.248C103.804 94.248 104.182 94.404 104.458 94.716C104.74 95.022 104.881 95.457 104.881 96.021V99H104.161V96.147C104.161 95.313 103.81 94.896 103.108 94.896C102.964 94.896 102.823 94.914 102.685 94.95C102.553 94.986 102.433 95.04 102.325 95.112C102.217 95.184 102.13 95.277 102.064 95.391C102.004 95.499 101.974 95.628 101.974 95.778V99H101.254ZM106.279 93.267C106.123 93.267 106.009 93.231 105.937 93.159C105.871 93.081 105.838 92.982 105.838 92.862V92.745C105.838 92.625 105.871 92.529 105.937 92.457C106.009 92.379 106.123 92.34 106.279 92.34C106.435 92.34 106.546 92.379 106.612 92.457C106.684 92.529 106.72 92.625 106.72 92.745V92.862C106.72 92.982 106.684 93.081 106.612 93.159C106.546 93.231 106.435 93.267 106.279 93.267ZM105.919 94.356H106.639V99H105.919V94.356ZM107.719 99V94.356H108.439V95.112H108.475C108.589 94.848 108.748 94.638 108.952 94.482C109.162 94.326 109.441 94.248 109.789 94.248C110.269 94.248 110.647 94.404 110.923 94.716C111.205 95.022 111.346 95.457 111.346 96.021V99H110.626V96.147C110.626 95.313 110.275 94.896 109.573 94.896C109.429 94.896 109.288 94.914 109.15 94.95C109.018 94.986 108.898 95.04 108.79 95.112C108.682 95.184 108.595 95.277 108.529 95.391C108.469 95.499 108.439 95.628 108.439 95.778V99H107.719ZM116.3 99.513C116.3 99.993 116.111 100.344 115.733 100.566C115.361 100.794 114.8 100.908 114.05 100.908C113.324 100.908 112.802 100.809 112.484 100.611C112.166 100.413 112.007 100.131 112.007 99.765C112.007 99.513 112.073 99.315 112.205 99.171C112.337 99.033 112.517 98.931 112.745 98.865V98.766C112.469 98.634 112.331 98.418 112.331 98.118C112.331 97.884 112.406 97.707 112.556 97.587C112.706 97.461 112.898 97.368 113.132 97.308V97.272C112.856 97.14 112.64 96.951 112.484 96.705C112.334 96.459 112.259 96.174 112.259 95.85C112.259 95.616 112.301 95.4 112.385 95.202C112.469 95.004 112.586 94.836 112.736 94.698C112.892 94.554 113.075 94.443 113.285 94.365C113.501 94.287 113.741 94.248 114.005 94.248C114.335 94.248 114.629 94.308 114.887 94.428V94.347C114.887 94.167 114.929 94.02 115.013 93.906C115.097 93.786 115.235 93.726 115.427 93.726H116.12V94.356H115.238V94.653C115.406 94.797 115.535 94.971 115.625 95.175C115.721 95.373 115.769 95.598 115.769 95.85C115.769 96.084 115.727 96.3 115.643 96.498C115.559 96.696 115.439 96.867 115.283 97.011C115.133 97.149 114.95 97.257 114.734 97.335C114.518 97.413 114.278 97.452 114.014 97.452C113.864 97.452 113.714 97.437 113.564 97.407C113.408 97.449 113.267 97.512 113.141 97.596C113.015 97.674 112.952 97.785 112.952 97.929C112.952 98.067 113.018 98.16 113.15 98.208C113.282 98.256 113.453 98.28 113.663 98.28H114.653C115.229 98.28 115.646 98.391 115.904 98.613C116.168 98.829 116.3 99.129 116.3 99.513ZM115.625 99.567C115.625 99.381 115.553 99.231 115.409 99.117C115.271 99.009 115.022 98.955 114.662 98.955H113.114C112.826 99.087 112.682 99.297 112.682 99.585C112.682 99.789 112.757 99.963 112.907 100.107C113.063 100.251 113.324 100.323 113.69 100.323H114.356C114.758 100.323 115.07 100.26 115.292 100.134C115.514 100.008 115.625 99.819 115.625 99.567ZM114.014 96.876C114.32 96.876 114.563 96.804 114.743 96.66C114.923 96.51 115.013 96.282 115.013 95.976V95.724C115.013 95.418 114.923 95.193 114.743 95.049C114.563 94.899 114.32 94.824 114.014 94.824C113.708 94.824 113.465 94.899 113.285 95.049C113.105 95.193 113.015 95.418 113.015 95.724V95.976C113.015 96.282 113.105 96.51 113.285 96.66C113.465 96.804 113.708 96.876 114.014 96.876ZM123.334 93.708H123.289L122.758 94.761L121.255 97.497L119.752 94.761L119.221 93.708H119.176V99H118.438V92.718H119.446L121.246 96.102H121.291L123.1 92.718H124.072V99H123.334V93.708ZM128.595 99C128.325 99 128.13 98.928 128.01 98.784C127.896 98.64 127.824 98.46 127.794 98.244H127.749C127.647 98.532 127.479 98.748 127.245 98.892C127.011 99.036 126.732 99.108 126.408 99.108C125.916 99.108 125.532 98.982 125.256 98.73C124.986 98.478 124.851 98.136 124.851 97.704C124.851 97.266 125.01 96.93 125.328 96.696C125.652 96.462 126.153 96.345 126.831 96.345H127.749V95.886C127.749 95.556 127.659 95.304 127.479 95.13C127.299 94.956 127.023 94.869 126.651 94.869C126.369 94.869 126.132 94.932 125.94 95.058C125.754 95.184 125.598 95.352 125.472 95.562L125.04 95.157C125.166 94.905 125.367 94.692 125.643 94.518C125.919 94.338 126.267 94.248 126.687 94.248C127.251 94.248 127.689 94.386 128.001 94.662C128.313 94.938 128.469 95.322 128.469 95.814V98.37H129V99H128.595ZM126.525 98.496C126.705 98.496 126.87 98.475 127.02 98.433C127.17 98.391 127.299 98.331 127.407 98.253C127.515 98.175 127.599 98.085 127.659 97.983C127.719 97.881 127.749 97.77 127.749 97.65V96.885H126.795C126.381 96.885 126.078 96.945 125.886 97.065C125.7 97.185 125.607 97.359 125.607 97.587V97.776C125.607 98.004 125.688 98.181 125.85 98.307C126.018 98.433 126.243 98.496 126.525 98.496ZM129.578 99V94.356H130.298V95.112H130.334C130.448 94.848 130.607 94.638 130.811 94.482C131.021 94.326 131.3 94.248 131.648 94.248C132.128 94.248 132.506 94.404 132.782 94.716C133.064 95.022 133.205 95.457 133.205 96.021V99H132.485V96.147C132.485 95.313 132.134 94.896 131.432 94.896C131.288 94.896 131.147 94.914 131.009 94.95C130.877 94.986 130.757 95.04 130.649 95.112C130.541 95.184 130.454 95.277 130.388 95.391C130.328 95.499 130.298 95.628 130.298 95.778V99H129.578ZM138.158 99.513C138.158 99.993 137.969 100.344 137.591 100.566C137.219 100.794 136.658 100.908 135.908 100.908C135.182 100.908 134.66 100.809 134.342 100.611C134.024 100.413 133.865 100.131 133.865 99.765C133.865 99.513 133.931 99.315 134.063 99.171C134.195 99.033 134.375 98.931 134.603 98.865V98.766C134.327 98.634 134.189 98.418 134.189 98.118C134.189 97.884 134.264 97.707 134.414 97.587C134.564 97.461 134.756 97.368 134.99 97.308V97.272C134.714 97.14 134.498 96.951 134.342 96.705C134.192 96.459 134.117 96.174 134.117 95.85C134.117 95.616 134.159 95.4 134.243 95.202C134.327 95.004 134.444 94.836 134.594 94.698C134.75 94.554 134.933 94.443 135.143 94.365C135.359 94.287 135.599 94.248 135.863 94.248C136.193 94.248 136.487 94.308 136.745 94.428V94.347C136.745 94.167 136.787 94.02 136.871 93.906C136.955 93.786 137.093 93.726 137.285 93.726H137.978V94.356H137.096V94.653C137.264 94.797 137.393 94.971 137.483 95.175C137.579 95.373 137.627 95.598 137.627 95.85C137.627 96.084 137.585 96.3 137.501 96.498C137.417 96.696 137.297 96.867 137.141 97.011C136.991 97.149 136.808 97.257 136.592 97.335C136.376 97.413 136.136 97.452 135.872 97.452C135.722 97.452 135.572 97.437 135.422 97.407C135.266 97.449 135.125 97.512 134.999 97.596C134.873 97.674 134.81 97.785 134.81 97.929C134.81 98.067 134.876 98.16 135.008 98.208C135.14 98.256 135.311 98.28 135.521 98.28H136.511C137.087 98.28 137.504 98.391 137.762 98.613C138.026 98.829 138.158 99.129 138.158 99.513ZM137.483 99.567C137.483 99.381 137.411 99.231 137.267 99.117C137.129 99.009 136.88 98.955 136.52 98.955H134.972C134.684 99.087 134.54 99.297 134.54 99.585C134.54 99.789 134.615 99.963 134.765 100.107C134.921 100.251 135.182 100.323 135.548 100.323H136.214C136.616 100.323 136.928 100.26 137.15 100.134C137.372 100.008 137.483 99.819 137.483 99.567ZM135.872 96.876C136.178 96.876 136.421 96.804 136.601 96.66C136.781 96.51 136.871 96.282 136.871 95.976V95.724C136.871 95.418 136.781 95.193 136.601 95.049C136.421 94.899 136.178 94.824 135.872 94.824C135.566 94.824 135.323 94.899 135.143 95.049C134.963 95.193 134.873 95.418 134.873 95.724V95.976C134.873 96.282 134.963 96.51 135.143 96.66C135.323 96.804 135.566 96.876 135.872 96.876ZM140.241 99.108C139.923 99.108 139.635 99.051 139.377 98.937C139.125 98.823 138.906 98.661 138.72 98.451C138.54 98.235 138.399 97.98 138.297 97.686C138.201 97.386 138.153 97.05 138.153 96.678C138.153 96.312 138.201 95.979 138.297 95.679C138.399 95.379 138.54 95.124 138.72 94.914C138.906 94.698 139.125 94.533 139.377 94.419C139.635 94.305 139.923 94.248 140.241 94.248C140.553 94.248 140.832 94.305 141.078 94.419C141.324 94.533 141.534 94.692 141.708 94.896C141.882 95.094 142.014 95.331 142.104 95.607C142.2 95.883 142.248 96.186 142.248 96.516V96.858H138.909V97.074C138.909 97.272 138.939 97.458 138.999 97.632C139.065 97.8 139.155 97.947 139.269 98.073C139.389 98.199 139.533 98.298 139.701 98.37C139.875 98.442 140.07 98.478 140.286 98.478C140.58 98.478 140.835 98.409 141.051 98.271C141.273 98.133 141.444 97.935 141.564 97.677L142.077 98.046C141.927 98.364 141.693 98.622 141.375 98.82C141.057 99.012 140.679 99.108 140.241 99.108ZM140.241 94.851C140.043 94.851 139.863 94.887 139.701 94.959C139.539 95.025 139.398 95.121 139.278 95.247C139.164 95.373 139.074 95.523 139.008 95.697C138.942 95.865 138.909 96.051 138.909 96.255V96.318H141.474V96.219C141.474 95.805 141.36 95.475 141.132 95.229C140.91 94.977 140.613 94.851 140.241 94.851ZM142.985 99V94.356H143.705V95.112H143.741C143.795 94.992 143.855 94.881 143.921 94.779C143.993 94.671 144.077 94.578 144.173 94.5C144.275 94.422 144.392 94.362 144.524 94.32C144.656 94.272 144.812 94.248 144.992 94.248C145.298 94.248 145.58 94.323 145.838 94.473C146.096 94.617 146.288 94.857 146.414 95.193H146.432C146.516 94.941 146.672 94.722 146.9 94.536C147.134 94.344 147.449 94.248 147.845 94.248C148.319 94.248 148.688 94.404 148.952 94.716C149.222 95.022 149.357 95.457 149.357 96.021V99H148.637V96.147C148.637 95.733 148.556 95.421 148.394 95.211C148.232 95.001 147.974 94.896 147.62 94.896C147.476 94.896 147.338 94.914 147.206 94.95C147.08 94.986 146.966 95.04 146.864 95.112C146.762 95.184 146.681 95.277 146.621 95.391C146.561 95.499 146.531 95.628 146.531 95.778V99H145.811V96.147C145.811 95.733 145.73 95.421 145.568 95.211C145.406 95.001 145.154 94.896 144.812 94.896C144.668 94.896 144.53 94.914 144.398 94.95C144.266 94.986 144.149 95.04 144.047 95.112C143.945 95.184 143.861 95.277 143.795 95.391C143.735 95.499 143.705 95.628 143.705 95.778V99H142.985ZM152.138 99.108C151.82 99.108 151.532 99.051 151.274 98.937C151.022 98.823 150.803 98.661 150.617 98.451C150.437 98.235 150.296 97.98 150.194 97.686C150.098 97.386 150.05 97.05 150.05 96.678C150.05 96.312 150.098 95.979 150.194 95.679C150.296 95.379 150.437 95.124 150.617 94.914C150.803 94.698 151.022 94.533 151.274 94.419C151.532 94.305 151.82 94.248 152.138 94.248C152.45 94.248 152.729 94.305 152.975 94.419C153.221 94.533 153.431 94.692 153.605 94.896C153.779 95.094 153.911 95.331 154.001 95.607C154.097 95.883 154.145 96.186 154.145 96.516V96.858H150.806V97.074C150.806 97.272 150.836 97.458 150.896 97.632C150.962 97.8 151.052 97.947 151.166 98.073C151.286 98.199 151.43 98.298 151.598 98.37C151.772 98.442 151.967 98.478 152.183 98.478C152.477 98.478 152.732 98.409 152.948 98.271C153.17 98.133 153.341 97.935 153.461 97.677L153.974 98.046C153.824 98.364 153.59 98.622 153.272 98.82C152.954 99.012 152.576 99.108 152.138 99.108ZM152.138 94.851C151.94 94.851 151.76 94.887 151.598 94.959C151.436 95.025 151.295 95.121 151.175 95.247C151.061 95.373 150.971 95.523 150.905 95.697C150.839 95.865 150.806 96.051 150.806 96.255V96.318H153.371V96.219C153.371 95.805 153.257 95.475 153.029 95.229C152.807 94.977 152.51 94.851 152.138 94.851ZM154.881 99V94.356H155.601V95.112H155.637C155.751 94.848 155.91 94.638 156.114 94.482C156.324 94.326 156.603 94.248 156.951 94.248C157.431 94.248 157.809 94.404 158.085 94.716C158.367 95.022 158.508 95.457 158.508 96.021V99H157.788V96.147C157.788 95.313 157.437 94.896 156.735 94.896C156.591 94.896 156.45 94.914 156.312 94.95C156.18 94.986 156.06 95.04 155.952 95.112C155.844 95.184 155.757 95.277 155.691 95.391C155.631 95.499 155.601 95.628 155.601 95.778V99H154.881ZM160.573 99C160.321 99 160.129 98.931 159.997 98.793C159.871 98.649 159.808 98.463 159.808 98.235V94.986H159.043V94.356H159.475C159.631 94.356 159.736 94.326 159.79 94.266C159.85 94.2 159.88 94.089 159.88 93.933V93.069H160.528V94.356H161.545V94.986H160.528V98.37H161.473V99H160.573ZM165.765 99.108C165.255 99.108 164.82 99.012 164.46 98.82C164.1 98.622 163.794 98.352 163.542 98.01L164.1 97.542C164.322 97.836 164.568 98.061 164.838 98.217C165.108 98.367 165.426 98.442 165.792 98.442C166.242 98.442 166.584 98.334 166.818 98.118C167.058 97.902 167.178 97.614 167.178 97.254C167.178 96.954 167.088 96.723 166.908 96.561C166.728 96.399 166.431 96.27 166.017 96.174L165.504 96.057C164.928 95.925 164.487 95.727 164.181 95.463C163.881 95.193 163.731 94.815 163.731 94.329C163.731 94.053 163.782 93.807 163.884 93.591C163.986 93.375 164.127 93.195 164.307 93.051C164.493 92.907 164.712 92.799 164.964 92.727C165.222 92.649 165.504 92.61 165.81 92.61C166.284 92.61 166.689 92.697 167.025 92.871C167.367 93.045 167.655 93.3 167.889 93.636L167.322 94.05C167.148 93.81 166.938 93.621 166.692 93.483C166.446 93.345 166.14 93.276 165.774 93.276C165.372 93.276 165.054 93.363 164.82 93.537C164.592 93.705 164.478 93.96 164.478 94.302C164.478 94.602 164.574 94.83 164.766 94.986C164.964 95.136 165.261 95.256 165.657 95.346L166.17 95.463C166.788 95.601 167.235 95.811 167.511 96.093C167.787 96.375 167.925 96.75 167.925 97.218C167.925 97.506 167.874 97.767 167.772 98.001C167.676 98.235 167.535 98.433 167.349 98.595C167.163 98.757 166.935 98.883 166.665 98.973C166.401 99.063 166.101 99.108 165.765 99.108ZM171.57 94.356H172.281L170.202 100.08C170.148 100.218 170.094 100.332 170.04 100.422C169.986 100.518 169.92 100.593 169.842 100.647C169.764 100.701 169.665 100.74 169.545 100.764C169.431 100.788 169.29 100.8 169.122 100.8H168.753V100.17H169.482L169.833 99.18L168.096 94.356H168.816L169.932 97.515L170.148 98.271H170.193L170.445 97.515L171.57 94.356ZM174.109 99.108C173.677 99.108 173.314 99.027 173.02 98.865C172.732 98.697 172.483 98.475 172.273 98.199L172.786 97.785C172.966 98.013 173.167 98.19 173.389 98.316C173.611 98.436 173.869 98.496 174.163 98.496C174.469 98.496 174.706 98.43 174.874 98.298C175.048 98.166 175.135 97.98 175.135 97.74C175.135 97.56 175.075 97.407 174.955 97.281C174.841 97.149 174.631 97.059 174.325 97.011L173.956 96.957C173.74 96.927 173.542 96.882 173.362 96.822C173.182 96.756 173.023 96.672 172.885 96.57C172.753 96.462 172.648 96.33 172.57 96.174C172.498 96.018 172.462 95.832 172.462 95.616C172.462 95.388 172.504 95.19 172.588 95.022C172.672 94.848 172.786 94.704 172.93 94.59C173.08 94.476 173.257 94.392 173.461 94.338C173.665 94.278 173.884 94.248 174.118 94.248C174.496 94.248 174.811 94.314 175.063 94.446C175.321 94.578 175.546 94.761 175.738 94.995L175.261 95.427C175.159 95.283 175.009 95.154 174.811 95.04C174.613 94.92 174.364 94.86 174.064 94.86C173.764 94.86 173.536 94.926 173.38 95.058C173.23 95.184 173.155 95.358 173.155 95.58C173.155 95.808 173.23 95.973 173.38 96.075C173.536 96.177 173.758 96.252 174.046 96.3L174.406 96.354C174.922 96.432 175.288 96.582 175.504 96.804C175.72 97.02 175.828 97.305 175.828 97.659C175.828 98.109 175.675 98.463 175.369 98.721C175.063 98.979 174.643 99.108 174.109 99.108ZM177.615 99C177.363 99 177.171 98.931 177.039 98.793C176.913 98.649 176.85 98.463 176.85 98.235V94.986H176.085V94.356H176.517C176.673 94.356 176.778 94.326 176.832 94.266C176.892 94.2 176.922 94.089 176.922 93.933V93.069H177.57V94.356H178.587V94.986H177.57V98.37H178.515V99H177.615ZM181.005 99.108C180.687 99.108 180.399 99.051 180.141 98.937C179.889 98.823 179.67 98.661 179.484 98.451C179.304 98.235 179.163 97.98 179.061 97.686C178.965 97.386 178.917 97.05 178.917 96.678C178.917 96.312 178.965 95.979 179.061 95.679C179.163 95.379 179.304 95.124 179.484 94.914C179.67 94.698 179.889 94.533 180.141 94.419C180.399 94.305 180.687 94.248 181.005 94.248C181.317 94.248 181.596 94.305 181.842 94.419C182.088 94.533 182.298 94.692 182.472 94.896C182.646 95.094 182.778 95.331 182.868 95.607C182.964 95.883 183.012 96.186 183.012 96.516V96.858H179.673V97.074C179.673 97.272 179.703 97.458 179.763 97.632C179.829 97.8 179.919 97.947 180.033 98.073C180.153 98.199 180.297 98.298 180.465 98.37C180.639 98.442 180.834 98.478 181.05 98.478C181.344 98.478 181.599 98.409 181.815 98.271C182.037 98.133 182.208 97.935 182.328 97.677L182.841 98.046C182.691 98.364 182.457 98.622 182.139 98.82C181.821 99.012 181.443 99.108 181.005 99.108ZM181.005 94.851C180.807 94.851 180.627 94.887 180.465 94.959C180.303 95.025 180.162 95.121 180.042 95.247C179.928 95.373 179.838 95.523 179.772 95.697C179.706 95.865 179.673 96.051 179.673 96.255V96.318H182.238V96.219C182.238 95.805 182.124 95.475 181.896 95.229C181.674 94.977 181.377 94.851 181.005 94.851ZM183.748 99V94.356H184.468V95.112H184.504C184.558 94.992 184.618 94.881 184.684 94.779C184.756 94.671 184.84 94.578 184.936 94.5C185.038 94.422 185.155 94.362 185.287 94.32C185.419 94.272 185.575 94.248 185.755 94.248C186.061 94.248 186.343 94.323 186.601 94.473C186.859 94.617 187.051 94.857 187.177 95.193H187.195C187.279 94.941 187.435 94.722 187.663 94.536C187.897 94.344 188.212 94.248 188.608 94.248C189.082 94.248 189.451 94.404 189.715 94.716C189.985 95.022 190.12 95.457 190.12 96.021V99H189.4V96.147C189.4 95.733 189.319 95.421 189.157 95.211C188.995 95.001 188.737 94.896 188.383 94.896C188.239 94.896 188.101 94.914 187.969 94.95C187.843 94.986 187.729 95.04 187.627 95.112C187.525 95.184 187.444 95.277 187.384 95.391C187.324 95.499 187.294 95.628 187.294 95.778V99H186.574V96.147C186.574 95.733 186.493 95.421 186.331 95.211C186.169 95.001 185.917 94.896 185.575 94.896C185.431 94.896 185.293 94.914 185.161 94.95C185.029 94.986 184.912 95.04 184.81 95.112C184.708 95.184 184.624 95.277 184.558 95.391C184.498 95.499 184.468 95.628 184.468 95.778V99H183.748Z" fill="#009FC7"/>
</svg>
