<svg width="99" height="30" viewBox="0 0 99 30" fill="none" xmlns="http://www.w3.org/2000/svg">
<path d="M12.7512 30C10.8406 30 9.09611 29.6814 7.51779 29.0443C5.93947 28.4072 4.59651 27.4654 3.48892 26.2188C2.38133 24.9446 1.52294 23.3795 0.913765 21.5235C0.304588 19.6399 0 17.4654 0 15C0 12.5346 0.304588 10.374 0.913765 8.51801C1.52294 6.63435 2.38133 5.06925 3.48892 3.82272C4.59651 2.54848 5.93947 1.5928 7.51779 0.955679C9.09611 0.31856 10.8406 0 12.7512 0C14.6618 0 16.4062 0.31856 17.9845 0.955679C19.5629 1.5928 20.9058 2.54848 22.0134 3.82272C23.121 5.06925 23.9794 6.63435 24.5886 8.51801C25.1978 10.374 25.5023 12.5346 25.5023 15C25.5023 17.4654 25.1978 19.6399 24.5886 21.5235C23.9794 23.3795 23.121 24.9446 22.0134 26.2188C20.9058 27.4654 19.5629 28.4072 17.9845 29.0443C16.4062 29.6814 14.6618 30 12.7512 30ZM12.7512 24.3906C14.6618 24.3906 16.1432 23.7673 17.1954 22.5208C18.2753 21.2742 18.8152 19.4875 18.8152 17.1607V12.8393C18.8152 10.5125 18.2753 8.72576 17.1954 7.47922C16.1432 6.23269 14.6618 5.60942 12.7512 5.60942C10.8406 5.60942 9.34532 6.23269 8.26542 7.47922C7.2132 8.72576 6.6871 10.5125 6.6871 12.8393V17.1607C6.6871 19.4875 7.2132 21.2742 8.26542 22.5208C9.34532 23.7673 10.8406 24.3906 12.7512 24.3906Z" fill="white"/>
<path d="M28.695 0.498616H42.7753C45.1843 0.498616 47.0534 1.17729 48.3825 2.53463C49.7393 3.89197 50.4177 5.69252 50.4177 7.93629C50.4177 9.04432 50.2654 9.98615 49.9608 10.7618C49.6839 11.5374 49.2962 12.1745 48.7978 12.6731C48.3271 13.1717 47.7595 13.5457 47.0949 13.795C46.458 14.0166 45.7658 14.1413 45.0182 14.169V14.4183C45.7104 14.4183 46.4303 14.5429 47.178 14.7922C47.9533 15.0416 48.6594 15.4432 49.2962 15.9972C49.9331 16.5235 50.4592 17.2161 50.8746 18.0748C51.3176 18.9335 51.5391 19.9861 51.5391 21.2327C51.5391 22.3684 51.3453 23.4488 50.9576 24.4737C50.5977 25.4709 50.0854 26.3435 49.4208 27.0914C48.7563 27.8393 47.9671 28.4349 47.0534 28.8781C46.1396 29.2936 45.1428 29.5014 44.0629 29.5014H28.695V0.498616ZM35.0083 24.1828H42.2769C43.1076 24.1828 43.7583 23.9612 44.229 23.518C44.7274 23.0471 44.9766 22.3961 44.9766 21.5651V20.1524C44.9766 19.3213 44.7274 18.6842 44.229 18.241C43.7583 17.7701 43.1076 17.5346 42.2769 17.5346H35.0083V24.1828ZM35.0083 12.3823H41.28C42.1107 12.3823 42.7614 12.1468 43.2322 11.6759C43.7029 11.205 43.9383 10.554 43.9383 9.72299V8.47645C43.9383 7.64543 43.7029 6.99446 43.2322 6.52355C42.7614 6.05263 42.1107 5.81717 41.28 5.81717H35.0083V12.3823Z" fill="white"/>
<path d="M54.9862 29.5014V0.498616H72.68V3.57341H58.4751V13.2964H71.8493V16.3712H58.4751V26.4266H72.68V29.5014H54.9862Z" fill="white"/>
<path d="M77.1245 0.498616H86.8437C88.6435 0.498616 90.2772 0.803325 91.7448 1.41274C93.2123 2.02216 94.4584 2.93629 95.4829 4.15513C96.5351 5.34626 97.3381 6.85596 97.8919 8.68421C98.4457 10.4848 98.7226 12.59 98.7226 15C98.7226 17.41 98.4457 19.5291 97.8919 21.3573C97.3381 23.1579 96.5351 24.6676 95.4829 25.8864C94.4584 27.0776 93.2123 27.9778 91.7448 28.5873C90.2772 29.1967 88.6435 29.5014 86.8437 29.5014H77.1245V0.498616ZM86.8437 26.4266C88.0343 26.4266 89.1281 26.2327 90.1249 25.8449C91.1217 25.4294 91.9801 24.8338 92.7001 24.0582C93.42 23.2826 93.9738 22.3407 94.3614 21.2327C94.7768 20.097 94.9845 18.8089 94.9845 17.3684V12.6316C94.9845 11.1911 94.7768 9.9169 94.3614 8.80886C93.9738 7.67313 93.42 6.71745 92.7001 5.94183C91.9801 5.1662 91.1217 4.58449 90.1249 4.19668C89.1281 3.78116 88.0343 3.57341 86.8437 3.57341H80.6134V26.4266H86.8437Z" fill="white"/>
</svg>
