<svg width="179" height="119" viewBox="0 0 179 119" fill="none" xmlns="http://www.w3.org/2000/svg">
<path d="M25.7524 80.864C22.4404 80.864 19.4164 80.312 16.6804 79.208C13.9444 78.104 11.6164 76.472 9.69644 74.312C7.77644 72.104 6.28844 69.392 5.23244 66.176C4.17644 62.912 3.64844 59.144 3.64844 54.872C3.64844 50.6 4.17644 46.856 5.23244 43.64C6.28844 40.376 7.77644 37.664 9.69644 35.504C11.6164 33.296 13.9444 31.64 16.6804 30.536C19.4164 29.432 22.4404 28.88 25.7524 28.88C29.0644 28.88 32.0884 29.432 34.8244 30.536C37.5604 31.64 39.8884 33.296 41.8084 35.504C43.7284 37.664 45.2164 40.376 46.2724 43.64C47.3284 46.856 47.8564 50.6 47.8564 54.872C47.8564 59.144 47.3284 62.912 46.2724 66.176C45.2164 69.392 43.7284 72.104 41.8084 74.312C39.8884 76.472 37.5604 78.104 34.8244 79.208C32.0884 80.312 29.0644 80.864 25.7524 80.864ZM25.7524 71.144C29.0644 71.144 31.6324 70.064 33.4564 67.904C35.3284 65.744 36.2644 62.648 36.2644 58.616V51.128C36.2644 47.096 35.3284 44 33.4564 41.84C31.6324 39.68 29.0644 38.6 25.7524 38.6C22.4404 38.6 19.8484 39.68 17.9764 41.84C16.1524 44 15.2404 47.096 15.2404 51.128V58.616C15.2404 62.648 16.1524 65.744 17.9764 67.904C19.8484 70.064 22.4404 71.144 25.7524 71.144ZM53.3909 29.744H77.7989C81.9749 29.744 85.2149 30.92 87.5189 33.272C89.8709 35.624 91.0469 38.744 91.0469 42.632C91.0469 44.552 90.7829 46.184 90.2549 47.528C89.7749 48.872 89.1029 49.976 88.2389 50.84C87.4229 51.704 86.4389 52.352 85.2869 52.784C84.1829 53.168 82.9829 53.384 81.6869 53.432V53.864C82.8869 53.864 84.1349 54.08 85.4309 54.512C86.7749 54.944 87.9989 55.64 89.1029 56.6C90.2069 57.512 91.1189 58.712 91.8389 60.2C92.6069 61.688 92.9909 63.512 92.9909 65.672C92.9909 67.64 92.6549 69.512 91.9829 71.288C91.3589 73.016 90.4709 74.528 89.3189 75.824C88.1669 77.12 86.7989 78.152 85.2149 78.92C83.6309 79.64 81.9029 80 80.0309 80H53.3909V29.744ZM64.3349 70.784H76.9349C78.3749 70.784 79.5029 70.4 80.3189 69.632C81.1829 68.816 81.6149 67.688 81.6149 66.248V63.8C81.6149 62.36 81.1829 61.256 80.3189 60.488C79.5029 59.672 78.3749 59.264 76.9349 59.264H64.3349V70.784ZM64.3349 50.336H75.2069C76.6469 50.336 77.7749 49.928 78.5909 49.112C79.4069 48.296 79.8149 47.168 79.8149 45.728V43.568C79.8149 42.128 79.4069 41 78.5909 40.184C77.7749 39.368 76.6469 38.96 75.2069 38.96H64.3349V50.336ZM98.9663 80V29.744H129.638V35.072H105.014V51.92H128.198V57.248H105.014V74.672H129.638V80H98.9663ZM137.343 29.744H154.191C157.311 29.744 160.143 30.272 162.687 31.328C165.231 32.384 167.391 33.968 169.167 36.08C170.991 38.144 172.383 40.76 173.343 43.928C174.303 47.048 174.783 50.696 174.783 54.872C174.783 59.048 174.303 62.72 173.343 65.888C172.383 69.008 170.991 71.624 169.167 73.736C167.391 75.8 165.231 77.36 162.687 78.416C160.143 79.472 157.311 80 154.191 80H137.343V29.744ZM154.191 74.672C156.255 74.672 158.151 74.336 159.879 73.664C161.607 72.944 163.095 71.912 164.343 70.568C165.591 69.224 166.551 67.592 167.223 65.672C167.943 63.704 168.303 61.472 168.303 58.976V50.768C168.303 48.272 167.943 46.064 167.223 44.144C166.551 42.176 165.591 40.52 164.343 39.176C163.095 37.832 161.607 36.824 159.879 36.152C158.151 35.432 156.255 35.072 154.191 35.072H143.391V74.672H154.191Z" fill="#F7941D"/>
<path d="M7.34538 99.108C6.93738 99.108 6.56838 99.039 6.23838 98.901C5.91438 98.757 5.63538 98.55 5.40138 98.28C5.17338 98.004 4.99638 97.665 4.87038 97.263C4.74438 96.855 4.68138 96.387 4.68138 95.859C4.68138 95.331 4.74438 94.866 4.87038 94.464C4.99638 94.062 5.17338 93.723 5.40138 93.447C5.63538 93.171 5.91438 92.964 6.23838 92.826C6.56838 92.682 6.93738 92.61 7.34538 92.61C7.74738 92.61 8.11338 92.682 8.44338 92.826C8.77338 92.964 9.05238 93.171 9.28038 93.447C9.51438 93.723 9.69438 94.062 9.82038 94.464C9.94638 94.866 10.0094 95.331 10.0094 95.859C10.0094 96.387 9.94638 96.855 9.82038 97.263C9.69438 97.665 9.51438 98.004 9.28038 98.28C9.05238 98.55 8.77338 98.757 8.44338 98.901C8.11338 99.039 7.74738 99.108 7.34538 99.108ZM7.34538 98.433C7.61538 98.433 7.86438 98.385 8.09238 98.289C8.32038 98.193 8.51538 98.055 8.67738 97.875C8.84538 97.695 8.97438 97.479 9.06438 97.227C9.15438 96.975 9.19938 96.693 9.19938 96.381V95.337C9.19938 95.025 9.15438 94.743 9.06438 94.491C8.97438 94.239 8.84538 94.023 8.67738 93.843C8.51538 93.663 8.32038 93.525 8.09238 93.429C7.86438 93.333 7.61538 93.285 7.34538 93.285C7.07538 93.285 6.82638 93.333 6.59838 93.429C6.37038 93.525 6.17238 93.663 6.00438 93.843C5.84238 94.023 5.71638 94.239 5.62638 94.491C5.53638 94.743 5.49138 95.025 5.49138 95.337V96.381C5.49138 96.693 5.53638 96.975 5.62638 97.227C5.71638 97.479 5.84238 97.695 6.00438 97.875C6.17238 98.055 6.37038 98.193 6.59838 98.289C6.82638 98.385 7.07538 98.433 7.34538 98.433ZM13.7084 98.244H13.6724C13.6244 98.352 13.5644 98.46 13.4924 98.568C13.4264 98.67 13.3424 98.763 13.2404 98.847C13.1384 98.925 13.0154 98.988 12.8714 99.036C12.7274 99.084 12.5594 99.108 12.3674 99.108C11.8874 99.108 11.5064 98.955 11.2244 98.649C10.9424 98.337 10.8014 97.899 10.8014 97.335V94.356H11.5214V97.209C11.5214 98.043 11.8754 98.46 12.5834 98.46C12.7274 98.46 12.8654 98.442 12.9974 98.406C13.1354 98.37 13.2554 98.316 13.3574 98.244C13.4654 98.172 13.5494 98.082 13.6094 97.974C13.6754 97.86 13.7084 97.725 13.7084 97.569V94.356H14.4284V99H13.7084V98.244ZM16.5377 99C16.2857 99 16.0937 98.931 15.9617 98.793C15.8357 98.649 15.7727 98.463 15.7727 98.235V94.986H15.0077V94.356H15.4397C15.5957 94.356 15.7007 94.326 15.7547 94.266C15.8147 94.2 15.8447 94.089 15.8447 93.933V93.069H16.4927V94.356H17.5097V94.986H16.4927V98.37H17.4377V99H16.5377ZM19.9098 99.108C19.5858 99.108 19.2948 99.051 19.0368 98.937C18.7788 98.823 18.5598 98.661 18.3798 98.451C18.2058 98.241 18.0708 97.986 17.9748 97.686C17.8848 97.386 17.8398 97.05 17.8398 96.678C17.8398 96.306 17.8848 95.97 17.9748 95.67C18.0708 95.37 18.2058 95.115 18.3798 94.905C18.5598 94.695 18.7788 94.533 19.0368 94.419C19.2948 94.305 19.5858 94.248 19.9098 94.248C20.3718 94.248 20.7408 94.35 21.0168 94.554C21.2988 94.752 21.5088 95.013 21.6468 95.337L21.0438 95.643C20.9598 95.403 20.8218 95.217 20.6298 95.085C20.4378 94.953 20.1978 94.887 19.9098 94.887C19.6938 94.887 19.5048 94.923 19.3428 94.995C19.1808 95.061 19.0458 95.157 18.9378 95.283C18.8298 95.403 18.7488 95.55 18.6948 95.724C18.6408 95.892 18.6138 96.078 18.6138 96.282V97.074C18.6138 97.482 18.7218 97.818 18.9378 98.082C19.1598 98.34 19.4838 98.469 19.9098 98.469C20.4918 98.469 20.9118 98.199 21.1698 97.659L21.6918 98.01C21.5418 98.346 21.3168 98.613 21.0168 98.811C20.7228 99.009 20.3538 99.108 19.9098 99.108ZM23.9604 99.108C23.6484 99.108 23.3634 99.051 23.1054 98.937C22.8474 98.823 22.6254 98.661 22.4394 98.451C22.2594 98.235 22.1184 97.98 22.0164 97.686C21.9144 97.386 21.8634 97.05 21.8634 96.678C21.8634 96.312 21.9144 95.979 22.0164 95.679C22.1184 95.379 22.2594 95.124 22.4394 94.914C22.6254 94.698 22.8474 94.533 23.1054 94.419C23.3634 94.305 23.6484 94.248 23.9604 94.248C24.2724 94.248 24.5544 94.305 24.8064 94.419C25.0644 94.533 25.2864 94.698 25.4724 94.914C25.6584 95.124 25.8024 95.379 25.9044 95.679C26.0064 95.979 26.0574 96.312 26.0574 96.678C26.0574 97.05 26.0064 97.386 25.9044 97.686C25.8024 97.98 25.6584 98.235 25.4724 98.451C25.2864 98.661 25.0644 98.823 24.8064 98.937C24.5544 99.051 24.2724 99.108 23.9604 99.108ZM23.9604 98.469C24.3504 98.469 24.6684 98.349 24.9144 98.109C25.1604 97.869 25.2834 97.503 25.2834 97.011V96.345C25.2834 95.853 25.1604 95.487 24.9144 95.247C24.6684 95.007 24.3504 94.887 23.9604 94.887C23.5704 94.887 23.2524 95.007 23.0064 95.247C22.7604 95.487 22.6374 95.853 22.6374 96.345V97.011C22.6374 97.503 22.7604 97.869 23.0064 98.109C23.2524 98.349 23.5704 98.469 23.9604 98.469ZM26.7916 99V94.356H27.5116V95.112H27.5476C27.6016 94.992 27.6616 94.881 27.7276 94.779C27.7996 94.671 27.8836 94.578 27.9796 94.5C28.0816 94.422 28.1986 94.362 28.3306 94.32C28.4626 94.272 28.6186 94.248 28.7986 94.248C29.1046 94.248 29.3866 94.323 29.6446 94.473C29.9026 94.617 30.0946 94.857 30.2206 95.193H30.2386C30.3226 94.941 30.4786 94.722 30.7066 94.536C30.9406 94.344 31.2556 94.248 31.6516 94.248C32.1256 94.248 32.4946 94.404 32.7586 94.716C33.0286 95.022 33.1636 95.457 33.1636 96.021V99H32.4436V96.147C32.4436 95.733 32.3626 95.421 32.2006 95.211C32.0386 95.001 31.7806 94.896 31.4266 94.896C31.2826 94.896 31.1446 94.914 31.0126 94.95C30.8866 94.986 30.7726 95.04 30.6706 95.112C30.5686 95.184 30.4876 95.277 30.4276 95.391C30.3676 95.499 30.3376 95.628 30.3376 95.778V99H29.6176V96.147C29.6176 95.733 29.5366 95.421 29.3746 95.211C29.2126 95.001 28.9606 94.896 28.6186 94.896C28.4746 94.896 28.3366 94.914 28.2046 94.95C28.0726 94.986 27.9556 95.04 27.8536 95.112C27.7516 95.184 27.6676 95.277 27.6016 95.391C27.5416 95.499 27.5116 95.628 27.5116 95.778V99H26.7916ZM35.945 99.108C35.627 99.108 35.339 99.051 35.081 98.937C34.829 98.823 34.61 98.661 34.424 98.451C34.244 98.235 34.103 97.98 34.001 97.686C33.905 97.386 33.857 97.05 33.857 96.678C33.857 96.312 33.905 95.979 34.001 95.679C34.103 95.379 34.244 95.124 34.424 94.914C34.61 94.698 34.829 94.533 35.081 94.419C35.339 94.305 35.627 94.248 35.945 94.248C36.257 94.248 36.536 94.305 36.782 94.419C37.028 94.533 37.238 94.692 37.412 94.896C37.586 95.094 37.718 95.331 37.808 95.607C37.904 95.883 37.952 96.186 37.952 96.516V96.858H34.613V97.074C34.613 97.272 34.643 97.458 34.703 97.632C34.769 97.8 34.859 97.947 34.973 98.073C35.093 98.199 35.237 98.298 35.405 98.37C35.579 98.442 35.774 98.478 35.99 98.478C36.284 98.478 36.539 98.409 36.755 98.271C36.977 98.133 37.148 97.935 37.268 97.677L37.781 98.046C37.631 98.364 37.397 98.622 37.079 98.82C36.761 99.012 36.383 99.108 35.945 99.108ZM35.945 94.851C35.747 94.851 35.567 94.887 35.405 94.959C35.243 95.025 35.102 95.121 34.982 95.247C34.868 95.373 34.778 95.523 34.712 95.697C34.646 95.865 34.613 96.051 34.613 96.255V96.318H37.178V96.219C37.178 95.805 37.064 95.475 36.836 95.229C36.614 94.977 36.317 94.851 35.945 94.851ZM38.6323 96.651V95.877H40.9813V96.651H38.6323ZM41.9931 92.718H44.5761C45.0981 92.718 45.5061 92.865 45.8001 93.159C46.1001 93.453 46.2501 93.846 46.2501 94.338C46.2501 94.572 46.2171 94.77 46.1511 94.932C46.0851 95.094 46.0011 95.229 45.8991 95.337C45.7971 95.439 45.6861 95.517 45.5661 95.571C45.4461 95.619 45.3351 95.652 45.2331 95.67V95.724C45.3471 95.73 45.4731 95.76 45.6111 95.814C45.7551 95.868 45.8901 95.955 46.0161 96.075C46.1421 96.189 46.2471 96.339 46.3311 96.525C46.4211 96.705 46.4661 96.924 46.4661 97.182C46.4661 97.44 46.4241 97.68 46.3401 97.902C46.2621 98.124 46.1511 98.316 46.0071 98.478C45.8631 98.64 45.6921 98.769 45.4941 98.865C45.2961 98.955 45.0801 99 44.8461 99H41.9931V92.718ZM42.7491 98.334H44.6121C44.9361 98.334 45.1911 98.253 45.3771 98.091C45.5631 97.923 45.6561 97.68 45.6561 97.362V97.056C45.6561 96.738 45.5631 96.498 45.3771 96.336C45.1911 96.168 44.9361 96.084 44.6121 96.084H42.7491V98.334ZM42.7491 95.436H44.4861C44.7861 95.436 45.0201 95.361 45.1881 95.211C45.3561 95.061 45.4401 94.845 45.4401 94.563V94.257C45.4401 93.975 45.3561 93.759 45.1881 93.609C45.0201 93.459 44.7861 93.384 44.4861 93.384H42.7491V95.436ZM50.7259 99C50.4559 99 50.2609 98.928 50.1409 98.784C50.0269 98.64 49.9549 98.46 49.9249 98.244H49.8799C49.7779 98.532 49.6099 98.748 49.3759 98.892C49.1419 99.036 48.8629 99.108 48.5389 99.108C48.0469 99.108 47.6629 98.982 47.3869 98.73C47.1169 98.478 46.9819 98.136 46.9819 97.704C46.9819 97.266 47.1409 96.93 47.4589 96.696C47.7829 96.462 48.2839 96.345 48.9619 96.345H49.8799V95.886C49.8799 95.556 49.7899 95.304 49.6099 95.13C49.4299 94.956 49.1539 94.869 48.7819 94.869C48.4999 94.869 48.2629 94.932 48.0709 95.058C47.8849 95.184 47.7289 95.352 47.6029 95.562L47.1709 95.157C47.2969 94.905 47.4979 94.692 47.7739 94.518C48.0499 94.338 48.3979 94.248 48.8179 94.248C49.3819 94.248 49.8199 94.386 50.1319 94.662C50.4439 94.938 50.5999 95.322 50.5999 95.814V98.37H51.1309V99H50.7259ZM48.6559 98.496C48.8359 98.496 49.0009 98.475 49.1509 98.433C49.3009 98.391 49.4299 98.331 49.5379 98.253C49.6459 98.175 49.7299 98.085 49.7899 97.983C49.8499 97.881 49.8799 97.77 49.8799 97.65V96.885H48.9259C48.5119 96.885 48.2089 96.945 48.0169 97.065C47.8309 97.185 47.7379 97.359 47.7379 97.587V97.776C47.7379 98.004 47.8189 98.181 47.9809 98.307C48.1489 98.433 48.3739 98.496 48.6559 98.496ZM53.1036 99.108C52.6716 99.108 52.3086 99.027 52.0146 98.865C51.7266 98.697 51.4776 98.475 51.2676 98.199L51.7806 97.785C51.9606 98.013 52.1616 98.19 52.3836 98.316C52.6056 98.436 52.8636 98.496 53.1576 98.496C53.4636 98.496 53.7006 98.43 53.8686 98.298C54.0426 98.166 54.1296 97.98 54.1296 97.74C54.1296 97.56 54.0696 97.407 53.9496 97.281C53.8356 97.149 53.6256 97.059 53.3196 97.011L52.9506 96.957C52.7346 96.927 52.5366 96.882 52.3566 96.822C52.1766 96.756 52.0176 96.672 51.8796 96.57C51.7476 96.462 51.6426 96.33 51.5646 96.174C51.4926 96.018 51.4566 95.832 51.4566 95.616C51.4566 95.388 51.4986 95.19 51.5826 95.022C51.6666 94.848 51.7806 94.704 51.9246 94.59C52.0746 94.476 52.2516 94.392 52.4556 94.338C52.6596 94.278 52.8786 94.248 53.1126 94.248C53.4906 94.248 53.8056 94.314 54.0576 94.446C54.3156 94.578 54.5406 94.761 54.7326 94.995L54.2556 95.427C54.1536 95.283 54.0036 95.154 53.8056 95.04C53.6076 94.92 53.3586 94.86 53.0586 94.86C52.7586 94.86 52.5306 94.926 52.3746 95.058C52.2246 95.184 52.1496 95.358 52.1496 95.58C52.1496 95.808 52.2246 95.973 52.3746 96.075C52.5306 96.177 52.7526 96.252 53.0406 96.3L53.4006 96.354C53.9166 96.432 54.2826 96.582 54.4986 96.804C54.7146 97.02 54.8226 97.305 54.8226 97.659C54.8226 98.109 54.6696 98.463 54.3636 98.721C54.0576 98.979 53.6376 99.108 53.1036 99.108ZM57.3903 99.108C57.0723 99.108 56.7843 99.051 56.5263 98.937C56.2743 98.823 56.0553 98.661 55.8693 98.451C55.6893 98.235 55.5483 97.98 55.4463 97.686C55.3503 97.386 55.3023 97.05 55.3023 96.678C55.3023 96.312 55.3503 95.979 55.4463 95.679C55.5483 95.379 55.6893 95.124 55.8693 94.914C56.0553 94.698 56.2743 94.533 56.5263 94.419C56.7843 94.305 57.0723 94.248 57.3903 94.248C57.7023 94.248 57.9813 94.305 58.2273 94.419C58.4733 94.533 58.6833 94.692 58.8573 94.896C59.0313 95.094 59.1633 95.331 59.2533 95.607C59.3493 95.883 59.3973 96.186 59.3973 96.516V96.858H56.0583V97.074C56.0583 97.272 56.0883 97.458 56.1483 97.632C56.2143 97.8 56.3043 97.947 56.4183 98.073C56.5383 98.199 56.6823 98.298 56.8503 98.37C57.0243 98.442 57.2193 98.478 57.4353 98.478C57.7293 98.478 57.9843 98.409 58.2003 98.271C58.4223 98.133 58.5933 97.935 58.7133 97.677L59.2263 98.046C59.0763 98.364 58.8423 98.622 58.5243 98.82C58.2063 99.012 57.8283 99.108 57.3903 99.108ZM57.3903 94.851C57.1923 94.851 57.0123 94.887 56.8503 94.959C56.6883 95.025 56.5473 95.121 56.4273 95.247C56.3133 95.373 56.2233 95.523 56.1573 95.697C56.0913 95.865 56.0583 96.051 56.0583 96.255V96.318H58.6233V96.219C58.6233 95.805 58.5093 95.475 58.2813 95.229C58.0593 94.977 57.7623 94.851 57.3903 94.851ZM63.1038 98.244H63.0678C62.7858 98.82 62.3328 99.108 61.7088 99.108C61.4208 99.108 61.1598 99.051 60.9258 98.937C60.6918 98.823 60.4908 98.661 60.3228 98.451C60.1608 98.241 60.0348 97.986 59.9448 97.686C59.8608 97.386 59.8188 97.05 59.8188 96.678C59.8188 96.306 59.8608 95.97 59.9448 95.67C60.0348 95.37 60.1608 95.115 60.3228 94.905C60.4908 94.695 60.6918 94.533 60.9258 94.419C61.1598 94.305 61.4208 94.248 61.7088 94.248C62.0328 94.248 62.3088 94.32 62.5368 94.464C62.7708 94.602 62.9478 94.818 63.0678 95.112H63.1038V92.34H63.8238V99H63.1038V98.244ZM61.9068 98.46C62.0688 98.46 62.2218 98.439 62.3658 98.397C62.5158 98.355 62.6448 98.295 62.7528 98.217C62.8608 98.133 62.9448 98.034 63.0048 97.92C63.0708 97.8 63.1038 97.665 63.1038 97.515V95.787C63.1038 95.661 63.0708 95.544 63.0048 95.436C62.9448 95.322 62.8608 95.226 62.7528 95.148C62.6448 95.07 62.5158 95.01 62.3658 94.968C62.2218 94.92 62.0688 94.896 61.9068 94.896C61.4988 94.896 61.1778 95.025 60.9438 95.283C60.7098 95.535 60.5928 95.868 60.5928 96.282V97.074C60.5928 97.488 60.7098 97.824 60.9438 98.082C61.1778 98.334 61.4988 98.46 61.9068 98.46ZM66.6534 99V92.718H67.4094V98.334H70.0824V99H66.6534ZM72.2983 99.108C71.9803 99.108 71.6923 99.051 71.4343 98.937C71.1823 98.823 70.9633 98.661 70.7773 98.451C70.5973 98.235 70.4563 97.98 70.3543 97.686C70.2583 97.386 70.2103 97.05 70.2103 96.678C70.2103 96.312 70.2583 95.979 70.3543 95.679C70.4563 95.379 70.5973 95.124 70.7773 94.914C70.9633 94.698 71.1823 94.533 71.4343 94.419C71.6923 94.305 71.9803 94.248 72.2983 94.248C72.6103 94.248 72.8893 94.305 73.1353 94.419C73.3813 94.533 73.5913 94.692 73.7653 94.896C73.9393 95.094 74.0713 95.331 74.1613 95.607C74.2573 95.883 74.3053 96.186 74.3053 96.516V96.858H70.9663V97.074C70.9663 97.272 70.9963 97.458 71.0563 97.632C71.1223 97.8 71.2123 97.947 71.3263 98.073C71.4463 98.199 71.5903 98.298 71.7583 98.37C71.9323 98.442 72.1273 98.478 72.3433 98.478C72.6373 98.478 72.8923 98.409 73.1083 98.271C73.3303 98.133 73.5013 97.935 73.6213 97.677L74.1343 98.046C73.9843 98.364 73.7503 98.622 73.4323 98.82C73.1143 99.012 72.7363 99.108 72.2983 99.108ZM72.2983 94.851C72.1003 94.851 71.9203 94.887 71.7583 94.959C71.5963 95.025 71.4553 95.121 71.3353 95.247C71.2213 95.373 71.1313 95.523 71.0653 95.697C70.9993 95.865 70.9663 96.051 70.9663 96.255V96.318H73.5313V96.219C73.5313 95.805 73.4173 95.475 73.1893 95.229C72.9673 94.977 72.6703 94.851 72.2983 94.851ZM78.4168 99C78.1468 99 77.9518 98.928 77.8318 98.784C77.7178 98.64 77.6458 98.46 77.6158 98.244H77.5708C77.4688 98.532 77.3008 98.748 77.0668 98.892C76.8328 99.036 76.5538 99.108 76.2298 99.108C75.7378 99.108 75.3538 98.982 75.0778 98.73C74.8078 98.478 74.6728 98.136 74.6728 97.704C74.6728 97.266 74.8318 96.93 75.1498 96.696C75.4738 96.462 75.9748 96.345 76.6528 96.345H77.5708V95.886C77.5708 95.556 77.4808 95.304 77.3008 95.13C77.1208 94.956 76.8448 94.869 76.4728 94.869C76.1908 94.869 75.9538 94.932 75.7618 95.058C75.5758 95.184 75.4198 95.352 75.2938 95.562L74.8618 95.157C74.9878 94.905 75.1888 94.692 75.4648 94.518C75.7408 94.338 76.0888 94.248 76.5088 94.248C77.0728 94.248 77.5108 94.386 77.8228 94.662C78.1348 94.938 78.2908 95.322 78.2908 95.814V98.37H78.8218V99H78.4168ZM76.3468 98.496C76.5268 98.496 76.6918 98.475 76.8418 98.433C76.9918 98.391 77.1208 98.331 77.2288 98.253C77.3368 98.175 77.4208 98.085 77.4808 97.983C77.5408 97.881 77.5708 97.77 77.5708 97.65V96.885H76.6168C76.2028 96.885 75.8998 96.945 75.7078 97.065C75.5218 97.185 75.4288 97.359 75.4288 97.587V97.776C75.4288 98.004 75.5098 98.181 75.6718 98.307C75.8398 98.433 76.0648 98.496 76.3468 98.496ZM79.3994 99V94.356H80.1194V95.211H80.1644C80.2484 94.989 80.3984 94.791 80.6144 94.617C80.8304 94.443 81.1274 94.356 81.5054 94.356H81.7844V95.076H81.3614C80.9714 95.076 80.6654 95.151 80.4434 95.301C80.2274 95.445 80.1194 95.628 80.1194 95.85V99H79.3994ZM82.2541 99V94.356H82.9741V95.112H83.0101C83.1241 94.848 83.2831 94.638 83.4871 94.482C83.6971 94.326 83.9761 94.248 84.3241 94.248C84.8041 94.248 85.1821 94.404 85.4581 94.716C85.7401 95.022 85.8811 95.457 85.8811 96.021V99H85.1611V96.147C85.1611 95.313 84.8101 94.896 84.1081 94.896C83.9641 94.896 83.8231 94.914 83.6851 94.95C83.5531 94.986 83.4331 95.04 83.3251 95.112C83.2171 95.184 83.1301 95.277 83.0641 95.391C83.0041 95.499 82.9741 95.628 82.9741 95.778V99H82.2541ZM87.2793 93.267C87.1233 93.267 87.0093 93.231 86.9373 93.159C86.8713 93.081 86.8383 92.982 86.8383 92.862V92.745C86.8383 92.625 86.8713 92.529 86.9373 92.457C87.0093 92.379 87.1233 92.34 87.2793 92.34C87.4353 92.34 87.5463 92.379 87.6123 92.457C87.6843 92.529 87.7203 92.625 87.7203 92.745V92.862C87.7203 92.982 87.6843 93.081 87.6123 93.159C87.5463 93.231 87.4353 93.267 87.2793 93.267ZM86.9193 94.356H87.6393V99H86.9193V94.356ZM88.7193 99V94.356H89.4393V95.112H89.4753C89.5893 94.848 89.7483 94.638 89.9523 94.482C90.1623 94.326 90.4413 94.248 90.7893 94.248C91.2693 94.248 91.6473 94.404 91.9233 94.716C92.2053 95.022 92.3463 95.457 92.3463 96.021V99H91.6263V96.147C91.6263 95.313 91.2753 94.896 90.5733 94.896C90.4293 94.896 90.2883 94.914 90.1503 94.95C90.0183 94.986 89.8983 95.04 89.7903 95.112C89.6823 95.184 89.5953 95.277 89.5293 95.391C89.4693 95.499 89.4393 95.628 89.4393 95.778V99H88.7193ZM97.2995 99.513C97.2995 99.993 97.1105 100.344 96.7325 100.566C96.3605 100.794 95.7995 100.908 95.0495 100.908C94.3235 100.908 93.8015 100.809 93.4835 100.611C93.1655 100.413 93.0065 100.131 93.0065 99.765C93.0065 99.513 93.0725 99.315 93.2045 99.171C93.3365 99.033 93.5165 98.931 93.7445 98.865V98.766C93.4685 98.634 93.3305 98.418 93.3305 98.118C93.3305 97.884 93.4055 97.707 93.5555 97.587C93.7055 97.461 93.8975 97.368 94.1315 97.308V97.272C93.8555 97.14 93.6395 96.951 93.4835 96.705C93.3335 96.459 93.2585 96.174 93.2585 95.85C93.2585 95.616 93.3005 95.4 93.3845 95.202C93.4685 95.004 93.5855 94.836 93.7355 94.698C93.8915 94.554 94.0745 94.443 94.2845 94.365C94.5005 94.287 94.7405 94.248 95.0045 94.248C95.3345 94.248 95.6285 94.308 95.8865 94.428V94.347C95.8865 94.167 95.9285 94.02 96.0125 93.906C96.0965 93.786 96.2345 93.726 96.4265 93.726H97.1195V94.356H96.2375V94.653C96.4055 94.797 96.5345 94.971 96.6245 95.175C96.7205 95.373 96.7685 95.598 96.7685 95.85C96.7685 96.084 96.7265 96.3 96.6425 96.498C96.5585 96.696 96.4385 96.867 96.2825 97.011C96.1325 97.149 95.9495 97.257 95.7335 97.335C95.5175 97.413 95.2775 97.452 95.0135 97.452C94.8635 97.452 94.7135 97.437 94.5635 97.407C94.4075 97.449 94.2665 97.512 94.1405 97.596C94.0145 97.674 93.9515 97.785 93.9515 97.929C93.9515 98.067 94.0175 98.16 94.1495 98.208C94.2815 98.256 94.4525 98.28 94.6625 98.28H95.6525C96.2285 98.28 96.6455 98.391 96.9035 98.613C97.1675 98.829 97.2995 99.129 97.2995 99.513ZM96.6245 99.567C96.6245 99.381 96.5525 99.231 96.4085 99.117C96.2705 99.009 96.0215 98.955 95.6615 98.955H94.1135C93.8255 99.087 93.6815 99.297 93.6815 99.585C93.6815 99.789 93.7565 99.963 93.9065 100.107C94.0625 100.251 94.3235 100.323 94.6895 100.323H95.3555C95.7575 100.323 96.0695 100.26 96.2915 100.134C96.5135 100.008 96.6245 99.819 96.6245 99.567ZM95.0135 96.876C95.3195 96.876 95.5625 96.804 95.7425 96.66C95.9225 96.51 96.0125 96.282 96.0125 95.976V95.724C96.0125 95.418 95.9225 95.193 95.7425 95.049C95.5625 94.899 95.3195 94.824 95.0135 94.824C94.7075 94.824 94.4645 94.899 94.2845 95.049C94.1045 95.193 94.0145 95.418 94.0145 95.724V95.976C94.0145 96.282 94.1045 96.51 94.2845 96.66C94.4645 96.804 94.7075 96.876 95.0135 96.876ZM104.334 93.708H104.289L103.758 94.761L102.255 97.497L100.752 94.761L100.221 93.708H100.176V99H99.4384V92.718H100.446L102.246 96.102H102.291L104.1 92.718H105.072V99H104.334V93.708ZM109.595 99C109.325 99 109.13 98.928 109.01 98.784C108.896 98.64 108.824 98.46 108.794 98.244H108.749C108.647 98.532 108.479 98.748 108.245 98.892C108.011 99.036 107.732 99.108 107.408 99.108C106.916 99.108 106.532 98.982 106.256 98.73C105.986 98.478 105.851 98.136 105.851 97.704C105.851 97.266 106.01 96.93 106.328 96.696C106.652 96.462 107.153 96.345 107.831 96.345H108.749V95.886C108.749 95.556 108.659 95.304 108.479 95.13C108.299 94.956 108.023 94.869 107.651 94.869C107.369 94.869 107.132 94.932 106.94 95.058C106.754 95.184 106.598 95.352 106.472 95.562L106.04 95.157C106.166 94.905 106.367 94.692 106.643 94.518C106.919 94.338 107.267 94.248 107.687 94.248C108.251 94.248 108.689 94.386 109.001 94.662C109.313 94.938 109.469 95.322 109.469 95.814V98.37H110V99H109.595ZM107.525 98.496C107.705 98.496 107.87 98.475 108.02 98.433C108.17 98.391 108.299 98.331 108.407 98.253C108.515 98.175 108.599 98.085 108.659 97.983C108.719 97.881 108.749 97.77 108.749 97.65V96.885H107.795C107.381 96.885 107.078 96.945 106.886 97.065C106.7 97.185 106.607 97.359 106.607 97.587V97.776C106.607 98.004 106.688 98.181 106.85 98.307C107.018 98.433 107.243 98.496 107.525 98.496ZM110.578 99V94.356H111.298V95.112H111.334C111.448 94.848 111.607 94.638 111.811 94.482C112.021 94.326 112.3 94.248 112.648 94.248C113.128 94.248 113.506 94.404 113.782 94.716C114.064 95.022 114.205 95.457 114.205 96.021V99H113.485V96.147C113.485 95.313 113.134 94.896 112.432 94.896C112.288 94.896 112.147 94.914 112.009 94.95C111.877 94.986 111.757 95.04 111.649 95.112C111.541 95.184 111.454 95.277 111.388 95.391C111.328 95.499 111.298 95.628 111.298 95.778V99H110.578ZM119.158 99.513C119.158 99.993 118.969 100.344 118.591 100.566C118.219 100.794 117.658 100.908 116.908 100.908C116.182 100.908 115.66 100.809 115.342 100.611C115.024 100.413 114.865 100.131 114.865 99.765C114.865 99.513 114.931 99.315 115.063 99.171C115.195 99.033 115.375 98.931 115.603 98.865V98.766C115.327 98.634 115.189 98.418 115.189 98.118C115.189 97.884 115.264 97.707 115.414 97.587C115.564 97.461 115.756 97.368 115.99 97.308V97.272C115.714 97.14 115.498 96.951 115.342 96.705C115.192 96.459 115.117 96.174 115.117 95.85C115.117 95.616 115.159 95.4 115.243 95.202C115.327 95.004 115.444 94.836 115.594 94.698C115.75 94.554 115.933 94.443 116.143 94.365C116.359 94.287 116.599 94.248 116.863 94.248C117.193 94.248 117.487 94.308 117.745 94.428V94.347C117.745 94.167 117.787 94.02 117.871 93.906C117.955 93.786 118.093 93.726 118.285 93.726H118.978V94.356H118.096V94.653C118.264 94.797 118.393 94.971 118.483 95.175C118.579 95.373 118.627 95.598 118.627 95.85C118.627 96.084 118.585 96.3 118.501 96.498C118.417 96.696 118.297 96.867 118.141 97.011C117.991 97.149 117.808 97.257 117.592 97.335C117.376 97.413 117.136 97.452 116.872 97.452C116.722 97.452 116.572 97.437 116.422 97.407C116.266 97.449 116.125 97.512 115.999 97.596C115.873 97.674 115.81 97.785 115.81 97.929C115.81 98.067 115.876 98.16 116.008 98.208C116.14 98.256 116.311 98.28 116.521 98.28H117.511C118.087 98.28 118.504 98.391 118.762 98.613C119.026 98.829 119.158 99.129 119.158 99.513ZM118.483 99.567C118.483 99.381 118.411 99.231 118.267 99.117C118.129 99.009 117.88 98.955 117.52 98.955H115.972C115.684 99.087 115.54 99.297 115.54 99.585C115.54 99.789 115.615 99.963 115.765 100.107C115.921 100.251 116.182 100.323 116.548 100.323H117.214C117.616 100.323 117.928 100.26 118.15 100.134C118.372 100.008 118.483 99.819 118.483 99.567ZM116.872 96.876C117.178 96.876 117.421 96.804 117.601 96.66C117.781 96.51 117.871 96.282 117.871 95.976V95.724C117.871 95.418 117.781 95.193 117.601 95.049C117.421 94.899 117.178 94.824 116.872 94.824C116.566 94.824 116.323 94.899 116.143 95.049C115.963 95.193 115.873 95.418 115.873 95.724V95.976C115.873 96.282 115.963 96.51 116.143 96.66C116.323 96.804 116.566 96.876 116.872 96.876ZM121.241 99.108C120.923 99.108 120.635 99.051 120.377 98.937C120.125 98.823 119.906 98.661 119.72 98.451C119.54 98.235 119.399 97.98 119.297 97.686C119.201 97.386 119.153 97.05 119.153 96.678C119.153 96.312 119.201 95.979 119.297 95.679C119.399 95.379 119.54 95.124 119.72 94.914C119.906 94.698 120.125 94.533 120.377 94.419C120.635 94.305 120.923 94.248 121.241 94.248C121.553 94.248 121.832 94.305 122.078 94.419C122.324 94.533 122.534 94.692 122.708 94.896C122.882 95.094 123.014 95.331 123.104 95.607C123.2 95.883 123.248 96.186 123.248 96.516V96.858H119.909V97.074C119.909 97.272 119.939 97.458 119.999 97.632C120.065 97.8 120.155 97.947 120.269 98.073C120.389 98.199 120.533 98.298 120.701 98.37C120.875 98.442 121.07 98.478 121.286 98.478C121.58 98.478 121.835 98.409 122.051 98.271C122.273 98.133 122.444 97.935 122.564 97.677L123.077 98.046C122.927 98.364 122.693 98.622 122.375 98.82C122.057 99.012 121.679 99.108 121.241 99.108ZM121.241 94.851C121.043 94.851 120.863 94.887 120.701 94.959C120.539 95.025 120.398 95.121 120.278 95.247C120.164 95.373 120.074 95.523 120.008 95.697C119.942 95.865 119.909 96.051 119.909 96.255V96.318H122.474V96.219C122.474 95.805 122.36 95.475 122.132 95.229C121.91 94.977 121.613 94.851 121.241 94.851ZM123.985 99V94.356H124.705V95.112H124.741C124.795 94.992 124.855 94.881 124.921 94.779C124.993 94.671 125.077 94.578 125.173 94.5C125.275 94.422 125.392 94.362 125.524 94.32C125.656 94.272 125.812 94.248 125.992 94.248C126.298 94.248 126.58 94.323 126.838 94.473C127.096 94.617 127.288 94.857 127.414 95.193H127.432C127.516 94.941 127.672 94.722 127.9 94.536C128.134 94.344 128.449 94.248 128.845 94.248C129.319 94.248 129.688 94.404 129.952 94.716C130.222 95.022 130.357 95.457 130.357 96.021V99H129.637V96.147C129.637 95.733 129.556 95.421 129.394 95.211C129.232 95.001 128.974 94.896 128.62 94.896C128.476 94.896 128.338 94.914 128.206 94.95C128.08 94.986 127.966 95.04 127.864 95.112C127.762 95.184 127.681 95.277 127.621 95.391C127.561 95.499 127.531 95.628 127.531 95.778V99H126.811V96.147C126.811 95.733 126.73 95.421 126.568 95.211C126.406 95.001 126.154 94.896 125.812 94.896C125.668 94.896 125.53 94.914 125.398 94.95C125.266 94.986 125.149 95.04 125.047 95.112C124.945 95.184 124.861 95.277 124.795 95.391C124.735 95.499 124.705 95.628 124.705 95.778V99H123.985ZM133.138 99.108C132.82 99.108 132.532 99.051 132.274 98.937C132.022 98.823 131.803 98.661 131.617 98.451C131.437 98.235 131.296 97.98 131.194 97.686C131.098 97.386 131.05 97.05 131.05 96.678C131.05 96.312 131.098 95.979 131.194 95.679C131.296 95.379 131.437 95.124 131.617 94.914C131.803 94.698 132.022 94.533 132.274 94.419C132.532 94.305 132.82 94.248 133.138 94.248C133.45 94.248 133.729 94.305 133.975 94.419C134.221 94.533 134.431 94.692 134.605 94.896C134.779 95.094 134.911 95.331 135.001 95.607C135.097 95.883 135.145 96.186 135.145 96.516V96.858H131.806V97.074C131.806 97.272 131.836 97.458 131.896 97.632C131.962 97.8 132.052 97.947 132.166 98.073C132.286 98.199 132.43 98.298 132.598 98.37C132.772 98.442 132.967 98.478 133.183 98.478C133.477 98.478 133.732 98.409 133.948 98.271C134.17 98.133 134.341 97.935 134.461 97.677L134.974 98.046C134.824 98.364 134.59 98.622 134.272 98.82C133.954 99.012 133.576 99.108 133.138 99.108ZM133.138 94.851C132.94 94.851 132.76 94.887 132.598 94.959C132.436 95.025 132.295 95.121 132.175 95.247C132.061 95.373 131.971 95.523 131.905 95.697C131.839 95.865 131.806 96.051 131.806 96.255V96.318H134.371V96.219C134.371 95.805 134.257 95.475 134.029 95.229C133.807 94.977 133.51 94.851 133.138 94.851ZM135.881 99V94.356H136.601V95.112H136.637C136.751 94.848 136.91 94.638 137.114 94.482C137.324 94.326 137.603 94.248 137.951 94.248C138.431 94.248 138.809 94.404 139.085 94.716C139.367 95.022 139.508 95.457 139.508 96.021V99H138.788V96.147C138.788 95.313 138.437 94.896 137.735 94.896C137.591 94.896 137.45 94.914 137.312 94.95C137.18 94.986 137.06 95.04 136.952 95.112C136.844 95.184 136.757 95.277 136.691 95.391C136.631 95.499 136.601 95.628 136.601 95.778V99H135.881ZM141.573 99C141.321 99 141.129 98.931 140.997 98.793C140.871 98.649 140.808 98.463 140.808 98.235V94.986H140.043V94.356H140.475C140.631 94.356 140.736 94.326 140.79 94.266C140.85 94.2 140.88 94.089 140.88 93.933V93.069H141.528V94.356H142.545V94.986H141.528V98.37H142.473V99H141.573ZM146.765 99.108C146.255 99.108 145.82 99.012 145.46 98.82C145.1 98.622 144.794 98.352 144.542 98.01L145.1 97.542C145.322 97.836 145.568 98.061 145.838 98.217C146.108 98.367 146.426 98.442 146.792 98.442C147.242 98.442 147.584 98.334 147.818 98.118C148.058 97.902 148.178 97.614 148.178 97.254C148.178 96.954 148.088 96.723 147.908 96.561C147.728 96.399 147.431 96.27 147.017 96.174L146.504 96.057C145.928 95.925 145.487 95.727 145.181 95.463C144.881 95.193 144.731 94.815 144.731 94.329C144.731 94.053 144.782 93.807 144.884 93.591C144.986 93.375 145.127 93.195 145.307 93.051C145.493 92.907 145.712 92.799 145.964 92.727C146.222 92.649 146.504 92.61 146.81 92.61C147.284 92.61 147.689 92.697 148.025 92.871C148.367 93.045 148.655 93.3 148.889 93.636L148.322 94.05C148.148 93.81 147.938 93.621 147.692 93.483C147.446 93.345 147.14 93.276 146.774 93.276C146.372 93.276 146.054 93.363 145.82 93.537C145.592 93.705 145.478 93.96 145.478 94.302C145.478 94.602 145.574 94.83 145.766 94.986C145.964 95.136 146.261 95.256 146.657 95.346L147.17 95.463C147.788 95.601 148.235 95.811 148.511 96.093C148.787 96.375 148.925 96.75 148.925 97.218C148.925 97.506 148.874 97.767 148.772 98.001C148.676 98.235 148.535 98.433 148.349 98.595C148.163 98.757 147.935 98.883 147.665 98.973C147.401 99.063 147.101 99.108 146.765 99.108ZM152.57 94.356H153.281L151.202 100.08C151.148 100.218 151.094 100.332 151.04 100.422C150.986 100.518 150.92 100.593 150.842 100.647C150.764 100.701 150.665 100.74 150.545 100.764C150.431 100.788 150.29 100.8 150.122 100.8H149.753V100.17H150.482L150.833 99.18L149.096 94.356H149.816L150.932 97.515L151.148 98.271H151.193L151.445 97.515L152.57 94.356ZM155.109 99.108C154.677 99.108 154.314 99.027 154.02 98.865C153.732 98.697 153.483 98.475 153.273 98.199L153.786 97.785C153.966 98.013 154.167 98.19 154.389 98.316C154.611 98.436 154.869 98.496 155.163 98.496C155.469 98.496 155.706 98.43 155.874 98.298C156.048 98.166 156.135 97.98 156.135 97.74C156.135 97.56 156.075 97.407 155.955 97.281C155.841 97.149 155.631 97.059 155.325 97.011L154.956 96.957C154.74 96.927 154.542 96.882 154.362 96.822C154.182 96.756 154.023 96.672 153.885 96.57C153.753 96.462 153.648 96.33 153.57 96.174C153.498 96.018 153.462 95.832 153.462 95.616C153.462 95.388 153.504 95.19 153.588 95.022C153.672 94.848 153.786 94.704 153.93 94.59C154.08 94.476 154.257 94.392 154.461 94.338C154.665 94.278 154.884 94.248 155.118 94.248C155.496 94.248 155.811 94.314 156.063 94.446C156.321 94.578 156.546 94.761 156.738 94.995L156.261 95.427C156.159 95.283 156.009 95.154 155.811 95.04C155.613 94.92 155.364 94.86 155.064 94.86C154.764 94.86 154.536 94.926 154.38 95.058C154.23 95.184 154.155 95.358 154.155 95.58C154.155 95.808 154.23 95.973 154.38 96.075C154.536 96.177 154.758 96.252 155.046 96.3L155.406 96.354C155.922 96.432 156.288 96.582 156.504 96.804C156.72 97.02 156.828 97.305 156.828 97.659C156.828 98.109 156.675 98.463 156.369 98.721C156.063 98.979 155.643 99.108 155.109 99.108ZM158.615 99C158.363 99 158.171 98.931 158.039 98.793C157.913 98.649 157.85 98.463 157.85 98.235V94.986H157.085V94.356H157.517C157.673 94.356 157.778 94.326 157.832 94.266C157.892 94.2 157.922 94.089 157.922 93.933V93.069H158.57V94.356H159.587V94.986H158.57V98.37H159.515V99H158.615ZM162.005 99.108C161.687 99.108 161.399 99.051 161.141 98.937C160.889 98.823 160.67 98.661 160.484 98.451C160.304 98.235 160.163 97.98 160.061 97.686C159.965 97.386 159.917 97.05 159.917 96.678C159.917 96.312 159.965 95.979 160.061 95.679C160.163 95.379 160.304 95.124 160.484 94.914C160.67 94.698 160.889 94.533 161.141 94.419C161.399 94.305 161.687 94.248 162.005 94.248C162.317 94.248 162.596 94.305 162.842 94.419C163.088 94.533 163.298 94.692 163.472 94.896C163.646 95.094 163.778 95.331 163.868 95.607C163.964 95.883 164.012 96.186 164.012 96.516V96.858H160.673V97.074C160.673 97.272 160.703 97.458 160.763 97.632C160.829 97.8 160.919 97.947 161.033 98.073C161.153 98.199 161.297 98.298 161.465 98.37C161.639 98.442 161.834 98.478 162.05 98.478C162.344 98.478 162.599 98.409 162.815 98.271C163.037 98.133 163.208 97.935 163.328 97.677L163.841 98.046C163.691 98.364 163.457 98.622 163.139 98.82C162.821 99.012 162.443 99.108 162.005 99.108ZM162.005 94.851C161.807 94.851 161.627 94.887 161.465 94.959C161.303 95.025 161.162 95.121 161.042 95.247C160.928 95.373 160.838 95.523 160.772 95.697C160.706 95.865 160.673 96.051 160.673 96.255V96.318H163.238V96.219C163.238 95.805 163.124 95.475 162.896 95.229C162.674 94.977 162.377 94.851 162.005 94.851ZM164.748 99V94.356H165.468V95.112H165.504C165.558 94.992 165.618 94.881 165.684 94.779C165.756 94.671 165.84 94.578 165.936 94.5C166.038 94.422 166.155 94.362 166.287 94.32C166.419 94.272 166.575 94.248 166.755 94.248C167.061 94.248 167.343 94.323 167.601 94.473C167.859 94.617 168.051 94.857 168.177 95.193H168.195C168.279 94.941 168.435 94.722 168.663 94.536C168.897 94.344 169.212 94.248 169.608 94.248C170.082 94.248 170.451 94.404 170.715 94.716C170.985 95.022 171.12 95.457 171.12 96.021V99H170.4V96.147C170.4 95.733 170.319 95.421 170.157 95.211C169.995 95.001 169.737 94.896 169.383 94.896C169.239 94.896 169.101 94.914 168.969 94.95C168.843 94.986 168.729 95.04 168.627 95.112C168.525 95.184 168.444 95.277 168.384 95.391C168.324 95.499 168.294 95.628 168.294 95.778V99H167.574V96.147C167.574 95.733 167.493 95.421 167.331 95.211C167.169 95.001 166.917 94.896 166.575 94.896C166.431 94.896 166.293 94.914 166.161 94.95C166.029 94.986 165.912 95.04 165.81 95.112C165.708 95.184 165.624 95.277 165.558 95.391C165.498 95.499 165.468 95.628 165.468 95.778V99H164.748Z" fill="#F7941D"/>
</svg>
